<svg xmlns="http://www.w3.org/2000/svg" viewBox="0 0 1065.79 695.5"><defs><style>.cls-1{fill:#fff;}</style></defs><title>Frc_Game_1_W_SVG</title><g id="Layer_2" data-name="Layer 2"><g id="Layer_1-2" data-name="Layer 1"><path class="cls-1" d="M671.59,694.28c-11.8-1.14-20.48-11.36-19.85-22.42.57-10,8.62-18.58,19.18-19.88H868.24c41.71-1.47,80.5-19.5,109.23-50.77S1022,528.59,1022,484.93A164,164,0,0,0,858.4,320.63h0c-.11,0-.35,0-.72,0s-1.1,0-1.95,0a21.92,21.92,0,0,1-22-25.52,202.8,202.8,0,0,0,2.87-33.67A205.06,205.06,0,0,0,832,218.25a21.9,21.9,0,0,1,16.74-26.09,21.91,21.91,0,0,1,26.07,16.76,247.26,247.26,0,0,1,5.63,52.58c0,5.43-.18,11-.55,16.39a207.78,207.78,0,0,1,185.94,206.89,218.18,218.18,0,0,1-14.88,79.53,211.33,211.33,0,0,1-41.17,66.28,200.17,200.17,0,0,1-62.38,46.14,195.7,195.7,0,0,1-78.07,18.76l-.7,0H692.69Z"/><path class="cls-1" d="M121.24,667.16a21.85,21.85,0,0,1-10.47-2.68c-33.05-18-61-46.11-80.84-81.36A233,233,0,0,1,0,469.3,208.49,208.49,0,0,1,89.46,298a205.65,205.65,0,0,1,59.63-28.62,170.75,170.75,0,0,1,170-157.52h0a169.86,169.86,0,0,1,50,7.51A246.85,246.85,0,0,1,456.66,32.9,242.88,242.88,0,0,1,579.11,0h0a242.8,242.8,0,0,1,89,16.77,21.82,21.82,0,0,1,13.94,20.39,22,22,0,0,1-30,20.48,199.49,199.49,0,0,0-73-13.74H579C502.18,43.9,433.17,87,399,156.27a22,22,0,0,1-28.6,10.36A126.71,126.71,0,0,0,192.47,282.91c0,.31,0,.86,0,1.62,0,.44,0,1,0,1.56a21.93,21.93,0,0,1-17.56,22C99,323.58,43.85,391.36,43.9,469.3a188.19,188.19,0,0,0,24.29,92.29C84,589.69,106,611.94,131.73,625.92a22,22,0,0,1-10.49,41.24Z"/><path class="cls-1" d="M179.77,689.11a21.95,21.95,0,1,1,21.93-21.95A22,22,0,0,1,179.77,689.11Z"/><path class="cls-1" d="M267.56,693.37a21.95,21.95,0,1,1,21.93-21.95A22,22,0,0,1,267.56,693.37Z"/><path class="cls-1" d="M742.45,90.4a21.95,21.95,0,1,1,14.22-5.25A22,22,0,0,1,742.45,90.4Z"/><path class="cls-1" d="M816.31,156a21.95,21.95,0,1,1,14.22-5.25A22,22,0,0,1,816.31,156Z"/><path class="cls-1" d="M297.73,524.78l2.21-2.21A22.27,22.27,0,0,1,315.88,516c4,0,8.48,0,11.7-.29a25.19,25.19,0,0,0,23-25.1V471.8a25.19,25.19,0,0,0-23.06-25.1c-3.28-.28-7.86-.32-11.92-.28a22.27,22.27,0,0,1-15.95-6.54l-2-2A22.27,22.27,0,0,1,291.16,422c0-4.06,0-8.64-.28-11.92A25.19,25.19,0,0,0,265.78,387H247A25.19,25.19,0,0,0,221.86,410c-.28,3.29-.32,7.87-.28,11.93A22.27,22.27,0,0,1,215,437.92l-2,2a22.27,22.27,0,0,1-15.95,6.54c-4.06,0-8.65,0-11.93.28a25.19,25.19,0,0,0-23.06,25.1v18.84a25.19,25.19,0,0,0,23,25.1c3.23.28,7.72.32,11.72.29a22.27,22.27,0,0,1,15.94,6.54l2.19,2.19a22.27,22.27,0,0,1,6.54,15.94c0,4,0,8.49.29,11.72a25.19,25.19,0,0,0,25.1,23h18.87a25.19,25.19,0,0,0,25.1-23c.28-3.22.32-7.71.29-11.7A22.27,22.27,0,0,1,297.73,524.78ZM822.48,377.07a32.28,32.28,0,1,1-32.28,32.28A32.28,32.28,0,0,1,822.48,377.07ZM895,449.35a32.28,32.28,0,1,1-32.28,32.28A32.28,32.28,0,0,1,895,449.35Zm-144.56,0a32.28,32.28,0,1,1-32.28,32.28A32.28,32.28,0,0,1,750.44,449.35Zm72.28,72.28a32.28,32.28,0,1,1-32.28,32.28A32.28,32.28,0,0,1,822.72,521.63ZM592.11,476.7v10.6a15.5,15.5,0,0,1-15.5,15.5H513.25a15.5,15.5,0,0,1-15.5-15.5V476.7a15.4,15.4,0,0,1,15.4-15.4h63.55A15.4,15.4,0,0,1,592.11,476.7Z"/></g></g></svg>