<?xml version="1.0" encoding="utf-8"?>
<!-- Generator: Adobe Illustrator 21.0.2, SVG Export Plug-In . SVG Version: 6.00 Build 0)  -->
<svg version="1.1" id="Layer_1" xmlns="http://www.w3.org/2000/svg" xmlns:xlink="http://www.w3.org/1999/xlink" x="0px" y="0px"
	 viewBox="0 0 493.5 451.8" style="enable-background:new 0 0 493.5 451.8;" xml:space="preserve">
<style type="text/css">
	.st0{fill:#FFFFFF;}
</style>
<g id="Layer_2">
	<g id="Layer_1-2">
		<path class="st0" d="M14,382.6c0-3.9-3.1-7-7-7s-7,3.1-7,7s3.1,7,7,7S14,386.5,14,382.6z"/>
		<path class="st0" d="M7,349.6c3.9,0,7-3.1,7-7V157.2c0.1-21.4,17.4-38.7,38.7-38.8h350c3.9,0,7-3.1,7-7s-3.1-7-7-7H250.1l76.6-93
			c2.5-3,2-7.4-0.9-9.9c-3-2.5-7.4-2-9.9,0.9l0,0l0,0L234.8,101l-57.7-56c-2.6-2.9-7-3.1-9.9-0.5c-2.9,2.6-3.1,7-0.5,9.9
			c0.2,0.2,0.4,0.4,0.6,0.6l50.8,49.3H52.7C23.6,104.4,0,128.1,0,157.2v185.5C0,346.5,3.1,349.6,7,349.6z"/>
		<path class="st0" d="M442.4,118.4h0.3c3.9,0.1,7.1-3,7.1-6.9c0.1-3.9-3-7.1-6.9-7.1l0,0c-3.9-0.2-7.1,2.8-7.3,6.7
			C435.6,115,438.6,118.3,442.4,118.4L442.4,118.4z"/>
		<path class="st0" d="M490.6,140c-1.8-5.4-4.5-10.4-8-14.9c-2.3-3.1-6.7-3.7-9.8-1.4c-3.1,2.3-3.7,6.7-1.4,9.8c0,0,0.1,0.1,0.1,0.1
			c5.2,6.7,8,15,8,23.5v241.9c-0.1,21.4-17.4,38.7-38.8,38.8h-6.3c-3.9,0-7,3.1-7,7s3.1,7,7,7h6.3c29.1-0.1,52.7-23.7,52.8-52.8
			V157.2C493.5,151.3,492.6,145.5,490.6,140z"/>
		<path class="st0" d="M97.4,399c0,3.9,3.1,7,7,7h239.1c22.2-0.1,40.1-18,40.2-40.2V307c0-3.9-3.1-7-7-7s-7,3.1-7,7v58.8
			c0,14.5-11.7,26.2-26.2,26.2H104.4C100.6,392,97.4,395.1,97.4,399z"/>
		<path class="st0" d="M68.9,388.3c-3.3-2-7.6-0.9-9.6,2.4c-2,3.3-0.9,7.6,2.4,9.6c1.1,0.7,2.3,1,3.6,1c3.9,0,7-3.1,7-7
			C72.3,391.9,71,389.6,68.9,388.3L68.9,388.3z"/>
		<path class="st0" d="M383.7,190.4c-0.1-22.2-18-40.1-40.2-40.2H82.3c-22.2,0.1-40.1,18-40.2,40.2v169.7c0,3.9,3.1,7,7,7s7-3.1,7-7
			V190.4c0-14.5,11.7-26.2,26.2-26.2h261.3c14.5,0,26.2,11.7,26.2,26.2V227c0,3.9,3.1,7,7,7s7-3.1,7-7V190.4z"/>
		<path class="st0" d="M376.7,260c-3.9,0-7,3.1-7,7s3.1,7,7,7s7-3.1,7-7S380.6,260,376.7,260z"/>
		<path class="st0" d="M399,198.4c0,14.5,11.8,26.3,26.3,26.3s26.3-11.8,26.3-26.3c0-14.5-11.8-26.3-26.3-26.3
			c-7,0-13.7,2.8-18.6,7.7C401.7,184.8,399,191.5,399,198.4z M425.2,186.2c6.8,0,12.2,5.5,12.3,12.2c0,6.8-5.5,12.2-12.2,12.3
			s-12.2-5.5-12.3-12.2C413,191.7,418.5,186.2,425.2,186.2L425.2,186.2z"/>
		<path class="st0" d="M421.5,447.4c0.9-2.1,0.6-4.6-0.7-6.5c-1.3-1.9-3.5-3-5.8-3H52.7c-14-0.1-26.8-7.6-33.7-19.8
			c-1.9-3.4-6.2-4.6-9.5-2.7c-3.4,1.9-4.6,6.2-2.7,9.5c0,0,0,0,0,0.1c4.6,8,11.1,14.7,19,19.4c8.1,4.8,17.4,7.4,26.9,7.4
			c0,0,351-0.5,362.1-0.5C416.8,451.3,420.4,449.7,421.5,447.4z"/>
	</g>
</g>
</svg>
