<?xml version="1.0" encoding="utf-8"?>
<!-- Generator: Adobe Illustrator 24.3.0, SVG Export Plug-In . SVG Version: 6.00 Build 0)  -->
<svg version="1.1" id="Layer_1" xmlns="http://www.w3.org/2000/svg" xmlns:xlink="http://www.w3.org/1999/xlink" x="0px" y="0px"
	 viewBox="0 0 389.36 415.42" style="enable-background:new 0 0 389.36 415.42;" xml:space="preserve">
<style type="text/css">
	.st0{fill:none;}
	.st1{display:none;}
	.st2{display:inline;}
	.st3{fill:none;stroke:#FFFFFF;stroke-width:6;stroke-linejoin:round;}
	.st4{fill:#FFFFFF;}
</style>
<symbol  id="material_system_icon_border" viewBox="-24 -24 48 48">
	<rect x="-24" y="-24" class="st0" width="48" height="48"/>
</symbol>
<g id="Layer_2_1_" class="st1">
	<g id="Layer_2-2" class="st2">
		<path class="st3" d="M139.32,97.93L386.36,3L178,163.73l81.91-16.92l-113.46,68.84L27.29,412.42l56-157.5l-24.85-32.63l4.43-35.89
			l-25.49-5.94L4.85,192.73L3,174.42l9.56-11.31l-2.93-13.16l12.11-21.43l25.44-18.46c6.93,1.87,69.41,50.39,69.41,50.39
			L139.32,97.93z"/>
		<polyline class="st3" points="27.29,412.42 144.61,160.42 386.36,3 		"/>
	</g>
</g>
<g id="Layer_2_2_">
	<g id="Layer_87">
		<path class="st4" d="M250.26,241.175c4.332-6.641,6.166-14.605,5.173-22.472c0-1.617-1.617-4.85,0-5.982s5.012,0,6.628-0.97
			c16.993-3.358,28.046-19.856,24.687-36.849c-0.676-3.418-1.916-6.7-3.671-9.711c-5.581-8.849-15.098-14.451-25.543-15.035
			c-2.102,0-6.952,1.293-8.73,0c-1.778-1.293-1.132-2.587-1.293-4.203c-0.474-6.141-1.612-12.212-3.395-18.107
			c-3.853-15.993-16.34-28.481-32.333-32.333c-14.093-2.631-28.66,0.201-40.74,7.922c-3.3,2.192-6.434,4.624-9.377,7.275
			c-2.587,2.102-3.557,0-5.658-1.455c-5.04-4.524-11.373-7.352-18.107-8.083c-7.637-0.743-15.317,0.894-21.987,4.688
			c-2.811,1.758-5.461,3.76-7.922,5.982c-3.072,2.425-5.497,1.778-9.215,2.102c-14.571,1.393-28.025,8.41-37.507,19.562
			c-9.398,9.929-11.886,24.542-6.305,37.022c1.617,3.88-1.132,4.042-4.042,6.143c-12.168,9.26-19.096,23.841-18.592,39.123
			c-0.134,10.047,2.615,19.921,7.922,28.453c5.613,7.191,13.664,12.079,22.633,13.742c1.617,0,6.143,0,7.275,0
			s1.293,3.718,1.617,5.012c1.614,4.304,4.417,8.06,8.083,10.832c3.674,2.562,7.979,4.072,12.448,4.365c2.263,0,2.91,0,3.557,2.587
			c1,3.522,3.166,6.6,6.143,8.73c6.828,4.329,15.805,2.948,21.017-3.233c3.498-4.707,3.94-11.018,1.132-16.167
			c-1.472-2.51-3.594-4.577-6.143-5.982c-2.102-1.293,0-2.748,0-4.85c0-2.102,0-5.82,2.587-4.365
			c4.606,2.27,9.801,3.061,14.873,2.263c1.778,0,1.778,0.97,1.94,2.425c0.539,3.616,1.687,7.115,3.395,10.347
			c0,1.293,3.072,3.718,3.072,5.173c0,1.455-2.748,2.102-4.042,2.748c-6.381,3.768-8.5,11.996-4.732,18.377
			c0.815,1.38,1.87,2.602,3.115,3.61c6.123,4.781,14.961,3.693,19.742-2.43c1.09-1.396,1.906-2.985,2.406-4.683
			c0-1.132,0-4.042,0-4.85s2.425,0,3.718,0c6.79,0,10.508-9.538,10.023-16.167c-1.616-8.003-1.616-16.247,0-24.25
			c2.168-6.849,6.846-12.624,13.095-16.167c14.872-8.398,33.602-5.153,44.782,7.76c1.617,2.425,3.395,10.347,6.952,10.67
			C242.5,250.067,248.482,243.923,250.26,241.175z M134.668,198.333l-14.388,4.203c-1.94,0-3.072,1.617-2.263,3.718
			s2.587,8.73,3.88,12.933c0,1.778,0,2.91-1.293,3.395l-13.257,3.88c-1.293,0-2.263,0-2.587-1.132
			c-1.455-4.688-2.748-9.377-4.042-13.903c-0.206-1.414-1.519-2.393-2.932-2.187c-0.274,0.04-0.539,0.123-0.786,0.247l-13.58,4.203
			c-1.617,0-2.587,0-3.072-1.617c-0.485-1.617-4.042-13.418-4.042-13.903c0-0.485,1.293-1.617,2.425-1.94l14.065-4.688
			c1.053-0.2,1.744-1.215,1.544-2.268c-0.021-0.109-0.051-0.215-0.089-0.319c-1.455-4.688-2.748-9.377-4.365-14.065
			c0-1.94,0-2.748,1.94-3.233l13.257-3.88c1.132,0,1.778,0,2.102,1.132c0.323,1.132,3.072,10.185,4.203,14.227
			c1.132,4.042,1.455,2.425,3.395,1.778l13.58-4.203c1.316-0.557,2.833,0.058,3.39,1.374c0.077,0.182,0.133,0.372,0.166,0.566
			c1.293,4.365,2.425,8.568,3.718,12.772C135.962,197.202,135.8,198.01,134.668,198.333z M174.438,191.543
			c-4.904-0.26-8.668-4.446-8.408-9.35c0-0.009,0.001-0.018,0.001-0.026c0.339-3.766,2.982-6.924,6.628-7.922
			c4.648-1.282,9.455,1.446,10.738,6.094c0.034,0.124,0.066,0.248,0.094,0.373c0.893,5.01-2.445,9.796-7.455,10.689
			C175.509,191.494,174.974,191.542,174.438,191.543z M180.743,156.138c-0.01-4.144,2.895-7.724,6.952-8.568
			c4.587-1.484,9.509,1.031,10.993,5.619c1.484,4.587-1.031,9.509-5.619,10.993c-0.539,0.174-1.094,0.296-1.656,0.363
			c-4.701,1.073-9.381-1.868-10.454-6.568c-0.162-0.709-0.234-1.435-0.216-2.162V156.138z M203.538,205.608
			c-4.352,0.931-8.676-1.692-9.862-5.982c-1.402-4.613,1.202-9.489,5.815-10.891c0.373-0.113,0.753-0.201,1.137-0.264
			c4.656-1.252,9.446,1.507,10.698,6.163c1.252,4.656-1.507,9.446-6.163,10.698C204.632,205.475,204.088,205.568,203.538,205.608z
			 M220.998,178.61c-4.174,2.413-9.514,0.985-11.927-3.189c-2.413-4.174-0.985-9.514,3.189-11.927
			c0.902-0.521,1.89-0.877,2.918-1.05c4.871-0.625,9.326,2.816,9.951,7.687c0.044,0.346,0.068,0.694,0.072,1.043
			c-0.09,2.935-1.676,5.619-4.203,7.113V178.61z"/>
		<path class="st4" d="M355.667,234.223c0-1.455,0-1.293-1.132-1.293h-19.723c-1.778,0-1.455,0-1.455,1.455v46.398
			c0.327,1.6,0.327,3.25,0,4.85c-0.519,1.327-1.675,2.301-3.072,2.587c-2.425,0-5.658,0-6.467-2.587
			c-0.935-2.5,0.185-5.301,2.587-6.467h3.072c0.97,0,0.97,0,0.97-0.97v-18.268v-0.97c-7.585-1.063-15.278,0.977-21.34,5.658
			c-5.329,5.249-8.053,12.592-7.437,20.047c-0.042,7.787,3.47,15.168,9.538,20.047c4.441,3.274,9.843,4.98,15.358,4.85
			c8.238,0.174,16.185-3.041,21.987-8.892c4.81-5.421,7.356-12.48,7.113-19.723C355.667,273.347,355.667,236.325,355.667,234.223z"
			/>
		<path class="st4" d="M217.28,234.708c-4.711-1.912-9.862-2.472-14.873-1.617c-4.654,0.597-9.092,2.317-12.933,5.012
			c-5.924,3.872-9.876,10.124-10.832,17.137c-0.156,2.638-0.156,5.283,0,7.922v45.267c0,1.455,0,1.293,1.293,1.293h19.723
			c1.455,0,1.293,0,1.293-1.455v-46.56c0-0.97,0-1.778,0-2.748c0.244-2.847,2.75-4.957,5.596-4.712
			c0.075,0.006,0.149,0.014,0.224,0.024c2.587,0.102,4.602,2.281,4.501,4.869c-0.013,0.321-0.058,0.64-0.136,0.951
			c-0.397,2.27-2.384,3.914-4.688,3.88h-1.617 M204.832,264.94v17.622c0,0.97,0,0.97,0.97,1.132
			c3.968,0.184,7.941-0.197,11.802-1.132c7.61-1.597,13.779-7.15,16.167-14.55c1.296-4.873,1.296-10,0-14.873
			c-2.041-8.529-8.24-15.457-16.49-18.43L204.832,264.94z"/>
		<path class="st4" d="M266.912,253.785c-15.803-0.09-28.687,12.649-28.777,28.452c0,0,0,0.001,0,0.001
			c-0.268,15.98,12.47,29.151,28.45,29.419s29.151-12.47,29.419-28.45c0.268-15.98-12.47-29.151-28.45-29.419
			C267.34,253.785,267.126,253.784,266.912,253.785z M274.833,283.208c-0.403,4.114-3.79,7.294-7.922,7.437
			c-4.72-0.343-8.268-4.447-7.925-9.166c0.001-0.016,0.002-0.032,0.004-0.049c0.332-4.149,3.76-7.367,7.922-7.437
			c4.551,0.147,8.122,3.955,7.975,8.506C274.879,282.737,274.861,282.973,274.833,283.208z"/>
		<path class="st4" d="M197.072,312.308c-6.339,0.038-11.447,5.208-11.409,11.547c0.003,0.464,0.034,0.926,0.092,1.386
			c0.845,4.938,4.878,8.706,9.862,9.215c6.075,1.022,11.829-3.074,12.851-9.149c1.022-6.075-3.074-11.829-9.149-12.851
			C198.576,312.331,197.824,312.282,197.072,312.308z"/>
		<path class="st4" d="M258.667,243.762c1.134,2.461,3.595,4.038,6.305,4.042c3.928,0.044,7.148-3.105,7.192-7.033
			c0.015-1.34-0.349-2.656-1.049-3.798c-2.233-3.34-6.751-4.237-10.091-2.004c-0.031,0.021-0.063,0.042-0.094,0.064
			C257.936,236.849,256.933,240.719,258.667,243.762z"/>
		<path class="st4" d="M162.798,302.77c-3.29,0.009-6.183,2.179-7.113,5.335c-0.98,3.804,1.309,7.683,5.114,8.663
			c3.804,0.98,7.683-1.309,8.663-5.114s-1.309-7.683-5.114-8.663C163.841,302.861,163.322,302.787,162.798,302.77z"/>
		<path class="st4" d="M123.028,294.363c-3.866-0.001-7.025,3.086-7.113,6.952c0,3.839,3.112,6.952,6.952,6.952l0,0
			c3.587-0.25,6.392-3.195,6.467-6.79C129.357,297.843,126.638,294.776,123.028,294.363z"/>
		<path class="st4" d="M264.972,227.272c2.32,0.088,4.271-1.722,4.359-4.042c0.088-2.32-1.722-4.271-4.042-4.359
			c-2.32-0.088-4.271,1.722-4.359,4.042c-0.004,0.106-0.004,0.212,0,0.317C260.93,225.462,262.74,227.272,264.972,227.272z"/>
		<path class="st4" d="M171.528,292.747c-1.726-0.459-3.497,0.569-3.955,2.295c-0.04,0.149-0.068,0.301-0.086,0.454
			c-0.189,1.686,1.024,3.206,2.71,3.395c0.228,0.026,0.457,0.026,0.685,0c1.596,0.187,3.042-0.955,3.229-2.551
			c0.001-0.012,0.003-0.024,0.004-0.036C174.316,294.624,173.188,293.073,171.528,292.747z"/>
	</g>
	<g id="border_copy_6">
		
			<use xlink:href="#material_system_icon_border"  width="48" height="48" x="-24" y="-24" transform="matrix(8.0833 0 0 8.0833 194 207.71)" style="overflow:visible;"/>
	</g>
</g>
</svg>
