<svg xmlns="http://www.w3.org/2000/svg" viewBox="0 0 839.92 698.17"><defs><style>.cls-1{fill:#fff;}</style></defs><title>Frc_TV_1_W_SVG</title><g id="Layer_2" data-name="Layer 2"><g id="Layer_1-2" data-name="Layer 1"><path class="cls-1" d="M548.52,698.17H274.26a17.15,17.15,0,0,1-16.42-22.06l51.42-52.82a17.15,17.15,0,0,1,16.42-12.22H497.09a17.15,17.15,0,0,1,16.42,12.22l51.42,52.82a17.15,17.15,0,0,1-16.42,22.06ZM322.17,663.89H500.8l-16.46-18.54H338.43Z"/><path class="cls-1" d="M634.22,698.17H188.55a17.14,17.14,0,1,1,0-34.28H634.22a17.14,17.14,0,0,1,0,34.28Z"/><path class="cls-1" d="M782.2,645.35H57.71A57.7,57.7,0,0,1,0,587.63V518.83a17.14,17.14,0,0,1,34.28,0v68.81a23.51,23.51,0,0,0,23.43,23.43H782.2a23.52,23.52,0,0,0,23.43-23.43V158a23.52,23.52,0,0,0-23.43-23.43H743.84a17.14,17.14,0,0,1,0-34.28H782.2A57.7,57.7,0,0,1,839.92,158V587.63a57.7,57.7,0,0,1-57.71,57.71ZM17.14,450.26a17.14,17.14,0,1,1,17.14-17.14A17.17,17.17,0,0,1,17.14,450.26Zm0-85.7A17.17,17.17,0,0,1,0,347.42V158a57.7,57.7,0,0,1,57.71-57.71H572.43a17.14,17.14,0,0,1,0,34.28H57.71A23.51,23.51,0,0,0,34.28,158V347.42A17.17,17.17,0,0,1,17.14,364.56Zm641-230a17.14,17.14,0,1,1,17.14-17.14A17.17,17.17,0,0,1,658.13,134.54Z"/><path class="cls-1" d="M574,263.31a94.37,94.37,0,0,0-14.08.7c-37.32-57.74-100.69-92.95-169.7-92.95-105.62,0-192.93,81.68-201.38,185.19a110.17,110.17,0,0,0,16.9,219H574A155.66,155.66,0,0,0,729.64,419.63C729.64,333,659.93,263.31,574,263.31ZM574,540H205.76a74.64,74.64,0,1,1,0-149.28h17.6v-17.6c0-91.54,74.64-166.88,166.88-166.88a166.38,166.38,0,0,1,145.05,85.2L541.64,302l12-2.11A111.74,111.74,0,0,1,574,297.82c66.19,0,120.41,54.22,120.41,120.41S640.22,540,574,540Z"/><path class="cls-1" d="M341.68,507.47a18.5,18.5,0,0,1-18.49-18.28l-1.5-128h-32a18.5,18.5,0,0,1,0-37H389.1a18.5,18.5,0,0,1,0,37H358.68l1.5,127.55a18.5,18.5,0,0,1-18.28,18.72Zm112.48-.15a23.87,23.87,0,0,1-6.52-.92c-9.14-2.59-15.35-10.35-15.46-19.3-.26-22.48-.52-46.13-.78-69.82-.27-25-.55-50.07-.82-73.8a18.5,18.5,0,0,1,18.29-18.71h.22a18.5,18.5,0,0,1,18.49,18.29c.27,23.74.55,48.8.82,73.83l.17,15.47q4.43-7.41,8.8-14.77c12.18-20.47,24.78-41.64,37.24-61.31a18.5,18.5,0,1,1,31.26,19.8c-12.19,19.24-24.65,40.19-36.71,60.44-12.2,20.5-24.81,41.69-37.29,61.39A20.7,20.7,0,0,1,454.15,507.32Z"/><path class="cls-1" d="M216.6,127.17a19,19,0,0,1-15-7.3l-75-89.49A18.5,18.5,0,1,1,155,6.62l45,53.7,1-42.26a18.5,18.5,0,0,1,37,.88l-2.13,89.45a19.06,19.06,0,0,1-13.87,18A19.41,19.41,0,0,1,216.6,127.17Z"/></g></g></svg>