<svg width="32" height="32" viewBox="0 0 32 32" fill="none" xmlns="http://www.w3.org/2000/svg">
<g clip-path="url(#clip0_5085_168279)">
<rect width="32" height="32" fill="white" fill-opacity="0.01"/>
<path d="M12.0107 28.1965C10.6173 28.1925 9.22666 28.0819 7.85066 27.8632C6.69199 27.6605 5.55999 27.3245 4.47865 26.8632C4.12932 26.7205 3.96265 26.3219 4.10532 25.9725C4.17999 25.7912 4.32932 25.6499 4.51599 25.5859C6.48132 24.9179 8.40399 24.1259 10.2707 23.2179L11.244 22.7579L10.1693 22.6899C8.26266 22.6045 6.51465 21.6032 5.47732 20.0005C5.27199 19.6845 5.36132 19.2619 5.67865 19.0565C5.77865 18.9925 5.89332 18.9539 6.01065 18.9472C6.43999 18.9219 6.86532 18.8512 7.27865 18.7365L8.30532 18.4499L7.27065 18.1965C5.77065 17.8499 4.46132 16.9379 3.61599 15.6512C3.26265 15.1139 2.99465 14.5245 2.82399 13.9045C2.75732 13.6672 2.82399 13.4125 2.99865 13.2379C3.17199 13.0605 3.42799 12.9925 3.66532 13.0605C4.10399 13.1659 4.54932 13.2365 4.99865 13.2712L5.95732 13.3659L5.19732 12.7739C3.17465 11.2765 2.25599 8.7072 2.86799 6.2672C2.96265 5.90187 3.33599 5.68454 3.70132 5.7792C3.82265 5.8112 3.93332 5.8752 4.01999 5.96587C7.22799 9.32587 11.6133 11.3099 16.2547 11.5032C16.2173 11.1685 16.1813 10.8725 16.1627 10.7885C15.6107 6.46054 17.4067 5.35654 18.372 4.76454C20.7773 3.27654 23.872 3.5272 26.0067 5.38454C26.2587 5.62854 26.6173 5.72854 26.9587 5.6512C27.3773 5.5472 27.7907 5.42054 28.196 5.27387C28.5507 5.1472 28.9413 5.33254 29.068 5.6872C29.12 5.83387 29.1213 5.9952 29.0693 6.1432L28.5573 7.60987H28.656C29.032 7.60987 29.3373 7.91387 29.3387 8.28987C29.3387 8.43787 29.2907 8.58054 29.2027 8.6992L28.4733 9.6752C27.8827 10.4845 27.5933 11.4752 27.656 12.4752C27.9227 17.6325 26.4987 21.6485 23.432 24.4099C20.22 27.0325 16.1533 28.3805 12.0107 28.1965ZM6.77065 26.2232C7.19465 26.3459 7.62666 26.4432 8.06266 26.5139C14.0067 27.4472 19.2773 26.3085 22.5187 23.3885C25.264 20.9165 26.5333 17.2659 26.292 12.5379C26.2173 11.2459 26.5853 9.9672 27.3373 8.91387C27.0027 8.7752 26.836 8.40054 26.956 8.0592L27.34 6.96187L27.292 6.97387C26.5053 7.1632 25.676 6.9432 25.0853 6.3912C23.4173 4.94587 21.004 4.74987 19.1253 5.90854C18.2893 6.42054 17.0787 7.16454 17.5027 10.5299C17.5973 11.0752 17.664 11.6245 17.7013 12.1765C17.724 12.3965 17.64 12.6125 17.4747 12.7592C17.308 12.9032 17.084 12.9605 16.8693 12.9125C16.796 12.8992 16.6453 12.8939 16.4333 12.8819C11.836 12.7419 7.43999 10.9685 4.03332 7.8792C4.07465 9.3952 4.81199 10.8072 6.03332 11.7059L8.65066 13.7485C8.94799 13.9805 8.99999 14.4099 8.76799 14.7072C8.62399 14.8912 8.39599 14.9885 8.16399 14.9659L4.85999 14.6392L4.57332 14.6099C4.62932 14.7099 4.69065 14.8099 4.75465 14.9072C5.41199 15.9045 6.42932 16.6099 7.59332 16.8752L11.1613 17.7499C11.5267 17.8405 11.7507 18.2112 11.66 18.5765C11.6013 18.8152 11.4187 19.0032 11.1813 19.0699L7.64265 20.0565C7.54532 20.0832 7.44932 20.1085 7.35199 20.1312C8.15199 20.8552 9.17866 21.2792 10.2573 21.3312L13.968 21.5685C14.344 21.5899 14.6307 21.9125 14.6093 22.2885C14.5947 22.5379 14.444 22.7605 14.2173 22.8659L10.8587 24.4525C9.17865 25.2472 7.93732 25.7779 6.77065 26.2232Z" fill="white"/>
</g>
<defs>
<clipPath id="clip0_5085_168279">
<rect width="32" height="32" fill="white"/>
</clipPath>
</defs>
</svg>
