<svg width="32" height="32" viewBox="0 0 32 32" fill="none" xmlns="http://www.w3.org/2000/svg">
<g clip-path="url(#clip0_5085_168249)">
<rect width="32" height="32" fill="white" fill-opacity="0.01"/>
<path d="M22.2385 3.96713L22.2785 7.76046H20.0851C19.3998 7.69646 18.7185 7.92446 18.2091 8.38846C17.8571 8.87113 17.6918 9.4658 17.7451 10.0618V11.6951C17.7451 12.4311 18.3425 13.0285 19.0785 13.0285L22.0865 12.9885L22.1238 17.0765H19.0785C18.3425 17.0765 17.7451 17.6738 17.7451 18.4098L17.7851 28.0018L13.5545 28.0418V18.4098C13.5545 17.6738 12.9571 17.0765 12.2211 17.0765L9.76912 17.1165L9.72912 13.0285H12.2211C12.9571 13.0285 13.5545 12.4311 13.5545 11.6951V9.62846C13.4865 8.11513 14.0198 6.6378 15.0371 5.51646C16.1025 4.4858 17.5438 3.93913 19.0238 4.0018L22.2385 3.96713ZM19.0238 2.66846C17.1838 2.6018 15.3958 3.29513 14.0825 4.5858C12.8171 5.9538 12.1465 7.76713 12.2158 9.62846V11.6951H9.72912C9.01579 11.6965 8.43712 12.2751 8.43579 12.9885V17.1218C8.43712 17.8351 9.01579 18.4138 9.72912 18.4151H12.2211V28.0418C12.2225 28.7551 12.8011 29.3338 13.5145 29.3351H17.7811C18.4945 29.3338 19.0731 28.7551 19.0745 28.0418V18.4098H22.1238C22.8371 18.4085 23.4158 17.8298 23.4171 17.1165V12.9831C23.4158 12.5138 23.1611 12.0818 22.7505 11.8525C22.5545 11.7445 22.3331 11.6885 22.1091 11.6898H19.0785V10.0618C19.0785 9.52846 19.1505 9.3378 19.2118 9.26846C19.2478 9.22846 19.4185 9.0938 20.0865 9.0938H22.2798C22.9945 9.09246 23.5718 8.5138 23.5731 7.79913V3.96713C23.5758 3.25246 22.9971 2.67113 22.2825 2.66846C22.2811 2.66846 22.2811 2.66846 22.2798 2.66846H19.0238Z" fill="white"/>
</g>
<defs>
<clipPath id="clip0_5085_168249">
<rect width="32" height="32" fill="white"/>
</clipPath>
</defs>
</svg>
