<svg width="32" height="32" viewBox="0 0 32 32" fill="none" xmlns="http://www.w3.org/2000/svg">
<g clip-path="url(#clip0_5085_168268)">
<rect width="32" height="32" fill="white" fill-opacity="0.01"/>
<path fill-rule="evenodd" clip-rule="evenodd" d="M7.75714 4.68099C8.6918 4.68099 9.44914 5.43832 9.44914 6.37299C9.44914 7.30766 8.6918 8.06499 7.75714 8.06499C6.82247 8.06499 6.06514 7.30766 6.06514 6.37299C6.06647 5.43832 6.82247 4.68232 7.75714 4.68099ZM7.75714 3.34766C6.08647 3.34632 4.7318 4.70099 4.73047 6.37166C4.72914 8.04233 6.0838 9.39699 7.75447 9.39832C9.42514 9.39966 10.7798 8.04499 10.7811 6.37433V6.37299C10.7785 4.70366 9.42647 3.35032 7.75714 3.34766ZM9.4238 12.1757V27.321H6.09047V12.1757H9.4238ZM9.88914 10.8423H5.62247C5.1438 10.8423 4.7558 11.2303 4.75447 11.709V27.7877C4.7558 28.2663 5.1438 28.6543 5.62247 28.6543H9.88914C10.3678 28.6543 10.7558 28.2663 10.7571 27.7877V11.709C10.7558 11.2303 10.3678 10.8423 9.88914 10.8423ZM17.2038 13.9237V12.1757H13.8705V27.321H17.2011V18.285C17.2038 16.7397 18.4211 15.4703 19.9651 15.405H20.0505C21.6225 15.4077 22.8971 16.6823 22.8985 18.2543V27.321H25.9451V18.5423C25.9465 16.6917 25.1251 14.9357 23.7025 13.7503C22.9465 13.1223 21.9931 12.7783 21.0105 12.7783C19.6865 12.945 18.3998 13.3317 17.2038 13.9237ZM13.3625 10.8423H17.7038C18.1611 10.8423 18.5318 11.213 18.5318 11.6703V12.021C19.3105 11.669 20.1505 11.4743 21.0051 11.445C22.3011 11.4437 23.5558 11.8983 24.5518 12.7277C26.2785 14.165 27.2758 16.2957 27.2731 18.5423V27.929C27.2731 28.3303 26.9478 28.6557 26.5465 28.6557H22.2891C21.8878 28.6557 21.5625 28.3303 21.5625 27.929V18.249C21.5611 17.413 20.8838 16.7343 20.0478 16.733H20.0011C19.1758 16.7703 18.5278 17.453 18.5345 18.2797V27.9117C18.5345 28.3223 18.2025 28.6543 17.7918 28.6543H13.3625C12.9051 28.6543 12.5345 28.2837 12.5345 27.8263V11.6703C12.5345 11.213 12.9051 10.8423 13.3625 10.8423Z" fill="white"/>
</g>
<defs>
<clipPath id="clip0_5085_168268">
<rect width="32" height="32" fill="white"/>
</clipPath>
</defs>
</svg>
