<svg width="32" height="32" viewBox="0 0 32 32" fill="none" xmlns="http://www.w3.org/2000/svg">
<g clip-path="url(#clip0_5085_168257)">
<rect width="32" height="32" fill="white" fill-opacity="0.01"/>
<path fill-rule="evenodd" clip-rule="evenodd" d="M22.1187 4.0013C25.368 4.0053 28 6.6373 28.004 9.88664V22.116C28 25.3653 25.368 27.9973 22.1187 28.0013H9.88932C6.63999 27.9973 4.00799 25.3653 4.00399 22.116V9.88664C4.00799 6.6373 6.63999 4.0053 9.88932 4.0013H22.1187ZM22.1187 2.66797H9.88932C5.90532 2.6733 2.67599 5.90264 2.67065 9.88664V22.116C2.67599 26.1 5.90532 29.3293 9.88932 29.3346H22.1187C26.104 29.3306 29.3333 26.1013 29.3373 22.116V9.88664C29.3333 5.9013 26.104 2.67197 22.1187 2.66797ZM16.004 10.0426C19.2947 10.0413 21.9627 12.7093 21.964 16C21.9653 19.2906 19.2973 21.9586 16.0067 21.96C12.716 21.9613 10.048 19.2933 10.0467 16.0026V16.0013C10.0507 12.712 12.7147 10.0466 16.004 10.0426ZM16.004 8.7093C11.9773 8.7093 8.71199 11.9746 8.71199 16.0013C8.71199 20.028 11.9773 23.2933 16.004 23.2933C20.0307 23.2933 23.296 20.028 23.296 16.0013C23.292 11.976 20.0293 8.7133 16.004 8.7093ZM24.2933 8.2733C24.292 7.81997 23.924 7.45197 23.4707 7.4533C23.0187 7.45597 22.652 7.82264 22.6507 8.27464V8.27597C22.652 8.7293 23.02 9.0973 23.4733 9.09597C23.9267 9.09464 24.2947 8.72664 24.2933 8.2733ZM21.3173 8.27597C21.316 7.08664 22.2813 6.1213 23.4707 6.11997C24.6613 6.11997 25.6253 7.08397 25.6267 8.27464C25.6267 9.46397 24.6627 10.428 23.4733 10.4293C22.284 10.4306 21.3187 9.4653 21.3173 8.27597Z" fill="white"/>
</g>
<defs>
<clipPath id="clip0_5085_168257">
<rect width="32" height="32" fill="white"/>
</clipPath>
</defs>
</svg>
