<svg width="32" height="32" viewBox="0 0 32 32" fill="none" xmlns="http://www.w3.org/2000/svg">
<g clip-path="url(#clip0_5085_168297)">
<rect width="32" height="32" fill="white" fill-opacity="0.01"/>
<path fill-rule="evenodd" clip-rule="evenodd" d="M11.3305 4.00199C11.6505 4.00199 11.9692 4.04999 12.2745 4.14333L14.1412 4.71399C11.6665 5.12199 9.3945 6.33399 7.67583 8.16199L8.2505 6.28199C8.66516 4.92733 9.9145 4.00333 11.3305 4.00199ZM11.3305 3.00199C9.47183 2.99399 7.8305 4.20999 7.2945 5.98999L6.71983 7.86866C6.5585 8.39666 6.8545 8.95533 7.3825 9.11799C7.7465 9.22866 8.1425 9.12466 8.40383 8.84733C9.9745 7.18333 12.0465 6.07799 14.3038 5.70066C14.8492 5.61399 15.2198 5.10066 15.1332 4.55533C15.0732 4.17799 14.8025 3.86866 14.4372 3.75666L12.5705 3.18733C12.1705 3.06466 11.7532 3.00199 11.3345 3.00199H11.3305ZM4.1505 19.7273L4.71551 17.8748C5.1245 20.3458 6.33334 22.6141 8.15716 24.33L6.28383 23.7513C4.58383 23.2287 3.62916 21.4273 4.1505 19.7273ZM4.71983 16.8607C4.27983 16.8607 3.89183 17.1487 3.76383 17.5687L3.1945 19.4353C2.51583 21.6633 3.76783 24.022 5.9945 24.7073L7.86783 25.2793C7.9625 25.3087 8.06116 25.3233 8.15983 25.3233C8.71183 25.318 9.15583 24.8673 9.15183 24.3153C9.14916 24.046 9.0385 23.7887 8.84383 23.602C7.17316 22.038 6.06783 19.9633 5.70116 17.7047C5.6265 17.246 5.24516 16.8993 4.78116 16.87C4.7585 16.8687 4.73716 16.8687 4.7145 16.87L4.71983 16.8607ZM23.7532 25.7153L24.3252 23.8487L24.3238 23.8367C22.6065 25.6607 20.3385 26.87 17.8665 27.278L19.7332 27.8487L19.7339 27.8488L19.7352 27.8493C19.7358 27.8497 19.7365 27.85 19.7372 27.85C21.4358 28.37 23.2332 27.414 23.7532 25.7153ZM24.2838 22.8367H24.3238H24.3345C24.4612 22.8367 24.5852 22.8607 24.7025 22.906C25.2158 23.1073 25.4692 23.6873 25.2678 24.202L24.7172 26.002C24.7158 26.0047 24.7158 26.0073 24.7145 26.01C24.0318 28.234 21.6745 29.4847 19.4492 28.802L17.5825 28.2327C17.2212 28.1207 16.9532 27.814 16.8918 27.4407C16.8012 26.8953 17.1705 26.3793 17.7158 26.2887C19.9732 25.922 22.0452 24.8167 23.6078 23.1487V23.1407C23.6545 23.09 23.7078 23.046 23.7652 23.0073C23.9185 22.9033 24.0985 22.8433 24.2838 22.8367ZM23.8438 7.67533L25.7238 8.24866C27.4238 8.77133 28.3785 10.5727 27.8572 12.2727L27.2865 14.1393C26.8798 11.6647 25.6705 9.39399 23.8438 7.67533ZM23.8438 6.67533C23.2918 6.67266 22.8412 7.11799 22.8385 7.66999C22.8372 7.94999 22.9532 8.21799 23.1585 8.40866C24.8225 9.97933 25.9278 12.05 26.3052 14.306C26.3812 14.7647 26.7625 15.11 27.2252 15.142H27.2932C27.7332 15.142 28.1198 14.854 28.2492 14.434L28.8185 12.5673C29.4972 10.3393 28.2452 7.98066 26.0185 7.29532L24.1372 6.71799C24.0425 6.68999 23.9438 6.67533 23.8452 6.67533H23.8438ZM6.00383 16.002C6.00383 21.5247 10.4812 26.002 16.0038 26.002C21.5238 25.9967 25.9985 21.522 26.0038 16.002C26.0038 10.4793 21.5265 6.00199 16.0038 6.00199C10.4812 6.00199 6.00383 10.4793 6.00383 16.002ZM7.33716 16.002C7.33716 11.2153 11.2172 7.33533 16.0038 7.33533C20.7878 7.34066 24.6652 11.218 24.6705 16.002C24.6705 20.7887 20.7905 24.6687 16.0038 24.6687C11.2172 24.6687 7.33716 20.7887 7.33716 16.002ZM16.0038 17.838C14.9905 17.838 14.1678 17.0153 14.1678 16.002C14.1678 14.9887 14.9905 14.166 16.0038 14.166C17.0172 14.166 17.8398 14.9887 17.8398 16.002C17.8385 17.0153 17.0172 17.8367 16.0038 17.838ZM16.0038 15.5007C15.7265 15.5007 15.5012 15.726 15.5012 16.0033C15.5012 16.2807 15.7265 16.506 16.0038 16.506C16.2812 16.506 16.5065 16.2807 16.5065 16.0033V16.002C16.5052 15.7247 16.2812 15.5007 16.0038 15.5007ZM14.4812 11.4367C14.4825 10.7233 13.9052 10.1447 13.1918 10.1447C12.5932 10.1447 12.0732 10.5567 11.9345 11.1393C11.9118 11.2353 11.8998 11.3353 11.8998 11.434C11.8985 12.1473 12.4758 12.726 13.1892 12.726C13.9025 12.7273 14.4812 12.15 14.4812 11.4367ZM21.8598 13.19C21.8612 12.4767 21.2838 11.898 20.5705 11.898C19.9718 11.898 19.4518 12.31 19.3132 12.8927C19.2905 12.9887 19.2785 13.0887 19.2785 13.1873C19.2772 13.9007 19.8545 14.4793 20.5678 14.4793C21.2812 14.4807 21.8585 13.9033 21.8598 13.19ZM12.7238 18.8113C12.7252 18.098 12.1478 17.5193 11.4345 17.5193C10.8358 17.5193 10.3158 17.9313 10.1772 18.514C10.1545 18.61 10.1425 18.71 10.1425 18.8087C10.1412 19.522 10.7185 20.1007 11.4318 20.1007C12.1452 20.102 12.7238 19.5247 12.7238 18.8113ZM20.1025 20.5687C20.1038 19.8553 19.5265 19.2767 18.8132 19.2767C18.2145 19.2767 17.6945 19.6887 17.5558 20.2713C17.5332 20.3673 17.5212 20.4673 17.5212 20.566C17.5198 21.2793 18.0972 21.858 18.8105 21.858C19.5238 21.8593 20.1025 21.282 20.1025 20.5687ZM10.5598 11.4353C10.5625 9.98333 11.7398 8.80866 13.1918 8.81133C13.3958 8.81133 13.5998 8.83533 13.7985 8.88333C14.9825 9.16599 15.8172 10.226 15.8158 11.4433C15.8132 12.8953 14.6358 14.07 13.1838 14.0673C11.7318 14.0647 10.5572 12.8873 10.5598 11.4353ZM17.9478 13.1927C17.9465 11.7433 19.1212 10.566 20.5705 10.5647H20.5745H20.5758C22.0252 10.566 23.1998 11.742 23.1998 13.1913C23.1985 14.6407 22.0225 15.8153 20.5732 15.8153C20.3678 15.8153 20.1625 15.7913 19.9625 15.7433C18.7825 15.4607 17.9492 14.406 17.9478 13.1927ZM8.81183 18.814C8.8105 17.3647 9.98516 16.1873 11.4345 16.186H11.4398C12.8892 16.186 14.0638 17.3607 14.0638 18.81C14.0652 20.2607 12.8892 21.4367 11.4398 21.4367C11.2332 21.4367 11.0278 21.4127 10.8265 21.3647C9.64649 21.082 8.81316 20.0273 8.81183 18.814ZM16.1905 20.5713C16.1892 19.122 17.3638 17.9447 18.8132 17.9433H18.8185C20.2678 17.9433 21.4425 19.118 21.4425 20.5673C21.4438 22.018 20.2678 23.194 18.8185 23.194C18.6118 23.194 18.4065 23.17 18.2052 23.122C17.0252 22.8393 16.1918 21.7847 16.1905 20.5713Z" fill="white"/>
</g>
<defs>
<clipPath id="clip0_5085_168297">
<rect width="32" height="32" fill="white"/>
</clipPath>
</defs>
</svg>
