<svg width="28" height="28" viewBox="0 0 28 28" fill="none" xmlns="http://www.w3.org/2000/svg">
<path d="M12.9778 4.08464C13.0403 4.08464 13.1184 4.11589 13.1862 4.20964C12.8841 3.77734 13.5247 3.96484 13.5612 3.55339C13.9257 3.28255 13.7955 3.10547 13.8997 3.09505L14.0143 3.0013C13.7903 3.08464 13.7122 3.10026 13.6497 3.10026H13.5455C13.4674 3.10026 13.3372 3.11589 13.0299 3.20964C12.3268 3.26172 11.8216 4.02214 11.582 4.04297C11.3372 4.17318 11.3476 4.19922 11.4049 4.19922C11.4205 4.19922 11.4414 4.19401 11.4622 4.19401C11.483 4.19401 11.4987 4.1888 11.5143 4.1888C11.5716 4.1888 11.556 4.21484 11.2226 4.37109C11.3007 4.39193 10.6393 4.68359 10.6341 5.14193C10.6132 5.31901 10.6862 5.4388 10.806 5.4388C10.9101 5.4388 11.0403 5.36068 11.1809 5.16276C11.6497 4.62109 12.6393 4.56901 13.0664 4.24089C12.8007 4.22005 12.8528 4.08464 12.9778 4.08464ZM10.5976 4.26693C10.5507 4.26693 10.6132 4.20964 10.6809 4.15234C10.7539 4.09505 10.8372 4.03776 10.8372 4.03776L10.832 4.04297C11.1132 3.93359 10.9414 3.90755 11.0924 3.83464H11.082C11.0507 3.83464 11.108 3.79297 11.1601 3.74609C11.2122 3.70443 11.2591 3.65755 11.2122 3.65755C11.1862 3.65755 11.1184 3.67318 11.0039 3.72005C11.0403 3.66797 11.181 3.63151 11.3789 3.52214C11.0924 3.61589 10.8684 3.67318 10.8424 3.67318C10.8216 3.67318 10.9414 3.63151 11.3007 3.52214C11.3164 3.52214 11.332 3.52734 11.3424 3.52734C11.3789 3.52734 11.3945 3.51693 11.3893 3.50651C11.3841 3.49609 11.3632 3.49089 11.3268 3.49089C10.8112 3.53255 10.4257 3.85547 10.5403 3.89714C10.608 3.8763 10.6549 3.86589 10.6862 3.86589C10.7539 3.86589 10.7226 3.92318 10.5872 4.00651C10.6497 4.15234 9.54553 4.52734 9.42053 4.66276C9.48303 4.6263 9.5247 4.61589 9.54553 4.61589C9.62887 4.61589 9.51949 4.77734 9.41012 4.85547C9.47782 4.91797 9.52991 4.9388 9.57157 4.9388C9.68095 4.9388 9.72782 4.78776 9.82157 4.74089C9.84241 4.78255 9.86324 4.80339 9.88928 4.80339C9.97782 4.80339 10.0872 4.58464 10.1757 4.47005C10.2018 4.49609 10.233 4.51693 10.2747 4.51693C10.358 4.51693 10.483 4.44922 10.6809 4.25651C10.6393 4.26172 10.608 4.26693 10.5976 4.26693ZM9.3997 5.22526C9.2122 5.33984 9.11324 5.38672 9.07157 5.38672C8.99345 5.38672 9.09762 5.24089 9.19137 5.08984C9.28512 4.94401 9.36845 4.79818 9.24866 4.79818C9.19137 4.79818 9.0872 4.82943 8.92053 4.91276C8.46741 5.21484 7.70178 6.04818 7.36324 6.04818H7.33199C7.87887 5.64714 7.71741 4.86068 8.48303 4.65755C9.23824 4.22526 9.75387 4.36068 10.4257 3.86589C10.2278 3.96484 9.93616 4.07422 9.86845 4.07422C9.82678 4.07422 9.88928 4.02214 10.1601 3.89193C10.1341 3.89714 10.1132 3.90234 10.0976 3.90234C9.91532 3.90234 11.2955 3.40755 11.3632 3.39714C10.7955 3.47526 9.87887 3.94922 9.75387 3.94922C9.73824 3.94922 9.73824 3.94401 9.73824 3.93359C9.75907 3.91797 9.75907 3.90755 9.73824 3.90755C9.67053 3.90755 9.38928 4.0013 9.10282 4.09505C8.82157 4.1888 8.53512 4.28776 8.47262 4.28776C8.45178 4.28776 8.45178 4.27734 8.48303 4.25651C6.0247 5.65234 3.97262 8.00651 3.33199 10.7982C3.59762 11.4076 3.41532 12.569 3.85282 12.9076C4.35282 13.3294 3.42574 14.5534 3.67053 15.3086C3.92053 16.6732 4.99866 17.6055 5.11324 19.0013C5.31116 19.9596 6.03512 21.1315 6.3372 21.7409C6.56637 21.9701 7.19657 22.6315 7.30595 22.6315C7.34762 22.6315 7.32157 22.5326 7.15491 22.2669C7.05074 21.9701 6.44657 21.194 6.73824 21.194C6.75387 21.194 6.76949 21.194 6.79032 21.1992C6.43095 20.8346 7.5872 20.9336 6.77991 20.4388C6.68616 20.3242 6.66532 20.2878 6.68616 20.2878C6.7122 20.2878 6.78512 20.3294 6.86845 20.3711C6.95699 20.4128 7.06116 20.4544 7.14449 20.4544C7.2747 20.4544 7.36324 20.3659 7.31116 20.043C7.33199 20.0534 7.35282 20.0534 7.36845 20.0534C7.50387 20.0534 7.45699 19.7878 7.46741 19.5221C7.47782 19.2565 7.54553 18.9909 7.91012 18.9909C7.95178 18.9909 7.99866 18.9961 8.04553 19.0013C8.88928 18.543 8.15491 17.2773 9.12366 16.8138C9.0872 15.7617 7.67574 15.7096 7.14449 15.2826C7.05595 15.3346 6.97262 15.3503 6.88928 15.3503C6.79553 15.3503 6.7122 15.3294 6.63928 15.3034C6.56637 15.2826 6.49866 15.2565 6.45178 15.2565C6.44137 15.2565 6.43095 15.2565 6.42053 15.2617C7.32678 15.0221 6.66532 13.7617 5.91532 13.7617H5.86324C5.80595 13.2148 5.5247 13.4232 5.49345 12.9701C5.44657 12.9961 5.3997 13.0065 5.35282 13.0065C5.22782 13.0065 5.11324 12.918 5.01428 12.8346C4.91532 12.7461 4.83199 12.6628 4.75907 12.6628C4.70178 12.6628 4.6497 12.7201 4.60282 12.8867C4.65491 12.6315 4.63928 12.5482 4.5872 12.5482C4.53512 12.5482 4.44137 12.6367 4.3372 12.7253C4.23824 12.8138 4.12366 12.9023 4.03512 12.9023H4.00907C3.3997 12.4701 4.01428 11.7044 3.69137 11.1159C3.8997 10.8919 3.98303 10.5117 3.88928 10.5117C3.84241 10.5117 3.74866 10.6055 3.60282 10.8607C3.39449 10.3294 3.94657 9.1263 4.41532 9.05859C4.43095 9.05859 4.44137 9.05339 4.45699 9.05339C4.54032 9.05339 4.62366 9.09505 4.69657 9.18359C4.73824 9.42839 4.63407 9.94401 4.67574 9.94401C4.69657 9.94401 4.73824 9.83984 4.84241 9.56901C4.97782 8.94922 5.92574 8.5013 6.0247 8.12109C6.02991 8.1263 6.02991 8.1263 6.03512 8.1263C6.14449 8.1263 6.84762 7.50651 7.15491 7.4388C7.2747 7.31901 7.35803 7.27734 7.42053 7.27734C7.48824 7.27734 7.5247 7.32943 7.55074 7.3763C7.57678 7.42839 7.59762 7.47526 7.62366 7.47526C7.64449 7.47526 7.67053 7.44401 7.71741 7.35547C7.55595 7.03776 7.97262 6.73568 7.85803 6.73568C7.81637 6.73568 7.69137 6.77734 7.43616 6.88151C7.39449 6.90234 7.37366 6.90755 7.36324 6.90755C7.33199 6.90755 7.45699 6.82422 7.63928 6.74089C7.82157 6.65755 8.05074 6.57422 8.24345 6.57422C8.3372 6.57422 8.42053 6.59505 8.48303 6.64714C9.29032 6.45443 8.84762 6.1888 8.88928 6.1888H8.8997C9.12887 6.05339 9.06116 5.54297 9.3997 5.22526ZM5.79032 7.35547C5.77991 7.35547 5.82678 7.28776 5.98303 7.09505C6.30595 6.85547 6.56637 6.69401 6.26949 6.53776C6.3997 6.48047 6.5247 6.41276 6.64449 6.33984C6.63928 6.59505 6.42574 7.21484 6.31116 7.21484C6.28512 7.21484 6.25907 7.17839 6.24866 7.10026C6.31637 6.98047 6.32157 6.93359 6.29553 6.93359C6.25387 6.93359 6.13407 7.03776 6.01949 7.14714C5.90491 7.24609 5.80074 7.35547 5.79032 7.35547ZM6.0872 7.49609C5.94657 7.49609 5.97262 7.40755 6.40491 7.31901C6.59241 7.29297 6.44657 7.30339 6.67053 7.2513C6.45178 7.42839 6.20699 7.49609 6.0872 7.49609ZM14.1862 6.97005C14.2487 6.95964 14.2955 6.95964 14.332 6.95964C14.483 6.95964 14.4153 7.02214 14.3268 7.08464C14.2382 7.14714 14.1289 7.20964 14.1914 7.20964C14.2278 7.20964 14.3268 7.1888 14.5299 7.13151C15.556 7.05859 14.1289 6.1888 14.358 5.89714L14.2955 5.8763C13.8737 6.41276 14.5768 6.42318 14.1862 6.97005ZM13.7591 6.99089C13.832 6.99089 13.9257 6.90755 14.0247 6.67318C14.1601 6.51172 14.1028 6.49089 13.957 6.41276C13.556 6.51693 13.5924 6.99089 13.7591 6.99089ZM17.3528 8.64193C17.3372 8.64193 17.3268 8.64714 17.3164 8.65234C17.358 8.66276 17.3997 8.67318 17.4414 8.67318C17.3997 8.65234 17.3737 8.64193 17.3528 8.64193ZM24.3476 9.9388C24.4362 10.1315 24.483 10.2096 24.4882 10.2096C24.5247 10.2096 23.832 8.52214 23.5455 8.22005C22.0507 5.76172 19.5924 3.88151 16.7903 3.17839H16.7851C16.7122 3.17839 16.7955 3.21484 16.8945 3.2513C16.9935 3.28776 17.1132 3.32422 17.1132 3.32422C17.1132 3.32422 17.0351 3.29818 16.7955 3.23047C16.5299 3.15234 16.2591 3.09505 15.983 3.07422C15.9362 3.08984 17.1237 3.55859 17.9205 3.80339C17.6549 3.72005 17.3789 3.64714 17.3112 3.64714C17.2643 3.64714 17.3112 3.67839 17.5039 3.76172C17.2695 3.69401 17.1705 3.66276 17.1601 3.66276C17.1445 3.66276 17.4726 3.77214 17.7799 3.88151C18.0924 3.99089 18.3893 4.10026 18.306 4.10026C18.2851 4.10026 18.2278 4.08984 18.1393 4.07422C18.4049 4.22005 18.4987 4.27734 18.483 4.27734C18.457 4.27734 18.1289 4.12109 17.7903 3.96484C17.457 3.80859 17.1185 3.65234 17.0716 3.65234C17.0455 3.65234 17.1132 3.70443 17.3424 3.83984C17.6549 3.97526 17.9674 4.11068 17.8789 4.11068C17.8372 4.11068 17.7174 4.08464 17.483 4.01693C18.0039 4.28255 17.1132 4.17839 17.4153 4.53776C17.2487 4.38151 17.181 4.32943 17.1653 4.32943C17.1497 4.32943 17.1914 4.39193 17.233 4.45443C17.2747 4.51693 17.306 4.57943 17.2695 4.57943H17.2591C17.6237 4.97526 17.0039 4.62109 17.4466 4.97526C17.1132 4.82422 16.5455 4.57422 16.8007 4.57422C16.8632 4.57422 16.983 4.58984 17.1705 4.63151C16.832 4.23568 15.8737 4.22005 15.8528 4.17318C15.6132 4.1888 15.608 4.37109 15.6497 4.70443C15.6445 5.23047 15.1289 5.24089 15.1966 5.54297C15.1966 5.53776 15.2018 5.53776 15.2018 5.53776C15.2122 5.53776 15.2174 5.64193 15.2487 5.7513C15.2851 5.85547 15.3476 5.96484 15.483 5.96484C15.5559 5.96484 15.6497 5.93359 15.7643 5.85547C15.9257 6.14714 16.0716 6.2513 16.1862 6.2513C16.358 6.2513 16.4622 6.01693 16.4518 5.80339C16.2643 5.69922 16.0195 4.83464 16.2903 4.83464C16.332 4.83464 16.3841 4.85547 16.4518 4.90234C16.0299 5.9388 18.1184 5.24609 16.9362 5.72005C17.2018 6.06901 16.7695 6.05339 16.8945 6.47526C16.6914 6.53255 16.4674 6.58464 16.2695 6.58464C15.9778 6.58464 15.7539 6.45964 15.7799 6.02214C15.4153 6.21484 16.1445 6.86589 15.4205 6.86589H15.3789C15.0299 7.50651 13.7226 7.28776 14.7487 7.96484C14.8059 8.26172 14.6185 8.3138 14.3789 8.3138C14.3164 8.3138 14.2487 8.30859 14.1809 8.30339C14.1132 8.29818 14.0455 8.29818 13.983 8.29818C13.7122 8.29818 13.5195 8.36589 13.6862 8.78776C13.5664 9.22526 13.8476 9.41797 14.1914 9.41797C14.608 9.41797 15.1185 9.14714 15.1549 8.69922C15.3789 8.36068 15.6653 8.22005 15.9622 8.22005C16.431 8.22005 16.9257 8.57422 17.2487 9.01172C17.2747 9.05339 17.2955 9.06901 17.306 9.06901C17.332 9.06901 17.306 8.96484 17.2955 8.86068C17.2851 8.77734 17.2851 8.69401 17.3164 8.66797C16.8528 8.53776 16.4987 7.97526 16.6549 7.97526C16.707 7.97526 16.8164 8.03776 16.9935 8.20443H17.0195C17.3112 8.20443 17.5403 8.43359 17.7174 8.66276C17.8997 8.89193 18.0351 9.12109 18.1549 9.12109C18.2018 9.12109 18.2487 9.07943 18.2903 8.98568C18.2695 8.95443 18.2174 8.86589 18.1914 8.77734C18.1601 8.66797 18.1601 8.55859 18.3007 8.55859C18.358 8.55859 18.4362 8.57943 18.5455 8.62109C18.8997 8.52734 18.3216 7.60547 18.7903 7.60547C18.8372 7.60547 18.8945 7.61589 18.9674 7.63672C18.9622 7.79818 19.0351 7.85547 19.1028 7.85547C19.2382 7.85547 19.3737 7.66276 19.0455 7.60547C19.1705 7.48568 19.2435 7.4388 19.2955 7.4388C19.4778 7.4388 19.332 8.04297 19.9622 8.04297C20.1757 8.54818 18.108 8.07943 18.7695 9.04818C18.9205 9.15755 19.108 9.17839 19.2903 9.17839C19.3476 9.17839 19.3997 9.17839 19.4518 9.17318C19.5039 9.17318 19.556 9.16797 19.6028 9.16797C19.9257 9.16797 20.1549 9.24609 20.0143 9.91276C19.8424 10.0378 19.6497 10.0794 19.4518 10.0794C19.2747 10.0794 19.0976 10.0482 18.9257 10.0169C18.7539 9.98568 18.5872 9.95443 18.4362 9.95443C18.2018 9.95443 18.0143 10.0326 17.8997 10.3034C17.2903 10.0534 16.4882 10.043 16.5664 9.28776C15.5039 9.4388 14.3945 9.36068 13.6132 10.0117C13.5664 10.9648 11.9309 11.2721 12.3268 12.3555C11.8528 13.3555 12.8997 14.7565 13.9674 14.7565C14.0039 14.7565 14.0455 14.7565 14.082 14.7513C14.6653 14.7461 15.2539 14.4857 15.7695 14.4857C16.0351 14.4857 16.2747 14.5534 16.483 14.7617C16.5299 14.7565 16.5716 14.7513 16.608 14.7513C17.4049 14.7513 16.3528 16.0169 17.306 16.2305C18.1705 17.1263 16.7747 18.0482 17.457 18.9076C17.5299 19.5794 17.8632 20.1419 17.8632 20.7982C17.9518 20.8086 18.0351 20.8138 18.1237 20.8138C19.2226 20.8138 19.9101 19.8555 20.5559 19.1315C20.358 18.0482 22.0924 17.8346 21.4987 16.6211C21.2226 15.293 22.806 14.5065 22.7174 13.1784C22.733 12.9909 22.681 12.9336 22.6028 12.9336C22.5247 12.9336 22.4101 12.9909 22.3007 13.043C22.1862 13.1003 22.0612 13.1523 21.9622 13.1523C21.832 13.1523 21.733 13.0638 21.7226 12.7721C20.957 12.0586 20.608 11.0898 19.8945 10.3034C20.8216 10.7513 21.3476 11.7617 21.7747 12.6784C21.8112 12.6888 21.8476 12.694 21.8893 12.694C22.6445 12.694 23.6966 10.8867 22.5507 10.4492C22.4882 10.6211 22.4049 10.6836 22.306 10.6836C22.1341 10.6836 21.9362 10.4753 21.7955 10.2721C21.6549 10.0638 21.582 9.85547 21.6601 9.85547C21.7122 9.85547 21.8268 9.9388 22.0247 10.1576C22.2487 10.2982 22.4674 10.3346 22.6966 10.3346C22.9205 10.3346 23.1497 10.2982 23.3893 10.2773C23.6914 10.3971 23.8216 10.7826 23.9153 10.7826C23.931 10.7826 23.9518 10.7669 23.9674 10.7305C24.207 11.3034 24.483 12.3242 24.733 12.6003C24.6028 11.7253 24.5716 10.7982 24.3476 9.9388ZM21.4414 8.73568C20.8528 8.58464 20.6601 7.85547 20.1966 7.43359C20.1914 7.31901 20.3632 7.33984 20.3216 7.14714C20.9466 7.33984 20.7435 7.53255 20.6862 7.56901C20.9153 7.94922 21.556 8.20964 21.4414 8.73568ZM13.3528 4.77214C12.7851 4.9388 12.707 4.75651 12.8059 5.10547C12.8476 5.13672 12.9257 5.14714 13.0039 5.14714C13.2799 5.15234 13.6549 4.99089 13.3528 4.77214ZM21.6914 19.1211C22.4362 18.4909 22.5299 17.7409 22.5664 16.9805C22.233 17.6315 21.2435 18.3503 21.6914 19.1211ZM18.3007 8.96484C18.2955 8.97005 18.2955 8.97005 18.2955 8.97526C18.3007 8.98568 18.306 8.98568 18.306 8.98568C18.306 8.98568 18.306 8.98047 18.3007 8.96484ZM14.0039 0.667969C6.63928 0.667969 0.670532 6.63672 0.670532 14.0013C0.670532 21.3659 6.63928 27.3346 14.0039 27.3346C21.3685 27.3346 27.3372 21.3659 27.3372 14.0013C27.3372 6.63672 21.3685 0.667969 14.0039 0.667969ZM14.0039 26.3086C7.20699 26.3086 1.69657 20.7982 1.69657 14.0013C1.69657 7.20443 7.20699 1.69401 14.0039 1.69401C20.8007 1.69401 26.3112 7.20443 26.3112 14.0013C26.3112 20.7982 20.8007 26.3086 14.0039 26.3086Z" fill="white"/>
</svg>
