<svg width="32" height="32" viewBox="0 0 32 32" fill="none" xmlns="http://www.w3.org/2000/svg">
<g clip-path="url(#clip0_5085_168287)">
<rect width="32" height="32" fill="white" fill-opacity="0.01"/>
<path fill-rule="evenodd" clip-rule="evenodd" d="M16.0707 7.33467V7.332H16.0387C15.964 7.344 15.8867 7.344 15.804 7.344C11.356 7.39067 8.55465 7.53467 6.98799 7.64667C6.23199 7.69333 5.52532 8.03333 5.01732 8.59467C4.55999 9.27067 4.27732 10.0493 4.19332 10.8613C4.18665 10.928 4.00399 12.9907 4.00399 15.0293V17.0053C4.00399 18.9832 4.17682 20.9939 4.19362 21.1892C4.19409 21.1947 4.19444 21.1987 4.19465 21.2013C4.26665 22 4.54665 22.7667 5.00532 23.4253C5.58265 23.992 6.35465 24.3187 7.16399 24.34C8.67515 24.5304 13.8941 24.6251 15.7352 24.6585L15.8187 24.66H16.0693H16.2427C20.7187 24.6133 23.4987 24.4693 25.0427 24.356C25.788 24.3253 26.4893 23.996 26.9907 23.4427C27.4493 22.764 27.732 21.9827 27.8147 21.168C27.8213 21.1013 28.004 19.0347 28.004 17V15.024C28.004 12.988 27.8213 10.9227 27.8133 10.836C27.7467 10.0227 27.468 9.24133 27.0053 8.56933C26.4613 8.00667 25.7227 7.672 24.9413 7.636C22.4293 7.42267 16.8293 7.33467 16.0707 7.33467ZM16.004 6.012H16.0707L16.0693 6C16.764 6 22.4333 6.08267 25.0893 6.30933C26.18 6.37867 27.2053 6.85333 27.9627 7.64267C28.632 8.536 29.04 9.59733 29.1387 10.7093V10.7213C29.1467 10.8107 29.3347 12.916 29.3347 15.0293V17C29.3347 19.1133 29.1467 21.2187 29.1387 21.308V21.3347C29.0187 22.424 28.616 23.4627 27.9707 24.3493C27.2387 25.1493 26.2213 25.6307 25.1387 25.6907C21.3542 25.9672 16.3215 25.9995 16.0511 26.0013C16.0425 26.0013 16.0387 26.0013 16.04 26.0013C15.9679 26 15.8889 25.9986 15.8035 25.9971C13.8562 25.9627 8.60082 25.8699 7.00799 25.6693C5.88799 25.62 4.82799 25.1507 4.03865 24.3533C3.37465 23.4733 2.96932 22.4253 2.86665 21.3267V21.3133C2.85865 21.224 2.67065 19.1187 2.67065 17.0053V15.0293C2.67065 12.916 2.85865 10.8107 2.86932 10.7213V10.6947C2.99065 9.60667 3.39199 8.57067 4.03599 7.68533C4.77599 6.88 5.79732 6.392 6.88799 6.32133C10.7741 6.04161 15.8199 6.01304 15.9991 6.01203C16.0027 6.01201 16.0044 6.012 16.004 6.012ZM12.7667 19.956C13.0093 20.0987 13.2853 20.1747 13.5667 20.1747C13.8227 20.1747 14.076 20.1133 14.3027 19.9933L19.1787 17.3973C19.4493 17.2533 19.672 17.0333 19.8173 16.7627C20.224 16.0093 19.9413 15.0693 19.188 14.664L14.3133 12.0227C13.8307 11.7573 13.244 11.768 12.7707 12.0493C12.2947 12.324 12.0013 12.8333 12.0027 13.3827V18.6227C12.0013 19.172 12.292 19.68 12.7667 19.956ZM13.6773 18.808H13.4467V18.804C13.3787 18.7667 13.336 18.6947 13.3373 18.616V13.3787C13.336 13.3 13.3787 13.228 13.448 13.1907C13.52 13.1507 13.6067 13.1507 13.6787 13.1907L18.5533 15.8293C18.5933 15.8507 18.6267 15.8827 18.6467 15.9227C18.7013 16.028 18.66 16.1587 18.5533 16.2133L13.6773 18.808Z" fill="white"/>
</g>
<defs>
<clipPath id="clip0_5085_168287">
<rect width="32" height="32" fill="white"/>
</clipPath>
</defs>
</svg>
