<svg width="77" height="22" viewBox="0 0 77 22" fill="none" xmlns="http://www.w3.org/2000/svg">
<g clip-path="url(#clip0_5045_256280)">
<path d="M46.6333 12.0891V0.103516H45.5488V12.0891C45.5488 15.0977 47.8946 17.5371 50.787 17.5371H51.8715C48.9791 17.5371 46.6333 15.0979 46.6333 12.0891Z" fill="url(#paint0_linear_5045_256280)"/>
<path d="M60.6836 13.0786C60.2067 18.0288 55.858 21.8943 50.9725 21.8943H52.057C56.9425 21.8943 61.3294 18.0284 61.8063 13.0781L60.6836 13.0786Z" fill="url(#paint1_linear_5045_256280)"/>
<path d="M56.3932 4.46094L60.6818 13.0784H61.8044L57.4777 4.46094H56.3932Z" fill="url(#paint2_linear_5045_256280)"/>
<path d="M67.2389 10.9995L61.8163 0.103516H60.7318L66.1543 10.9995H67.2389Z" fill="url(#paint3_linear_5045_256280)"/>
<path d="M66.1539 19.7144H67.2384L72.661 8.81836H71.5765L66.1539 19.7144Z" fill="url(#paint4_linear_5045_256280)"/>
<path d="M76.9993 0.103516H75.9148V21.8953H76.9993V0.103516Z" fill="url(#paint5_linear_5045_256280)"/>
<path d="M40.1261 0.103516H39.0416V21.8955H40.1261V0.103516Z" fill="url(#paint6_linear_5045_256280)"/>
<path d="M24.9437 0.103516H26.0663C30.1168 0.103516 33.3996 3.51811 33.3996 7.73072C33.3996 11.9433 30.0784 15.3579 26.0282 15.3579H24.9437C28.8913 15.3579 32.2767 11.9414 32.2767 7.73072C32.2767 3.52007 28.9939 0.103516 24.9437 0.103516Z" fill="url(#paint7_linear_5045_256280)"/>
<path d="M24.9437 15.3574H26.0282L29.2817 21.895H28.1972L24.9437 15.3574Z" fill="url(#paint8_linear_5045_256280)"/>
<path d="M10.8457 0.103516H11.9302L14.0992 4.46192H13.0147L10.8457 0.103516Z" fill="url(#paint9_linear_5045_256280)"/>
<path d="M13.0147 4.46094H14.0992L5.42319 21.8946H4.33868L13.0147 4.46094Z" fill="url(#paint10_linear_5045_256280)"/>
<path d="M70.4937 0.103516H69.4092L66.1556 6.64112H67.2401L70.4937 0.103516Z" fill="url(#paint11_linear_5045_256280)"/>
<path d="M17.3531 13.1797H18.4541L22.7922 21.8965H21.6912L17.3531 13.1797Z" fill="url(#paint12_linear_5045_256280)"/>
<path d="M13.0141 4.46192L4.33803 21.8955H0L10.8451 0.103516L13.0141 4.46192Z" fill="url(#paint13_linear_5045_256280)"/>
<path d="M15.183 17.5381L17.352 21.8965H21.69L17.352 13.1797L15.183 17.5381Z" fill="url(#paint14_linear_5045_256280)"/>
<path d="M32.5356 7.73072C32.5356 5.70786 31.7358 3.76785 30.3121 2.33747C28.8884 0.907094 26.9574 0.103516 24.944 0.103516H13.0145L15.1835 4.46192H24.944C25.8069 4.46192 26.6345 4.80631 27.2446 5.41933C27.8548 6.03235 28.1976 6.86378 28.1976 7.73072C28.1976 8.59766 27.8548 9.4291 27.2446 10.0421C26.6345 10.6551 25.8069 10.9995 24.944 10.9995H18.437L20.606 15.3579L23.8595 21.8955H28.1976L24.944 15.3579C26.9574 15.3579 28.8884 14.5543 30.3121 13.124C31.7358 11.6936 32.5356 9.75358 32.5356 7.73072Z" fill="white"/>
<path d="M56.395 4.46192V12.0891C56.395 13.534 55.8237 14.9197 54.8068 15.9414C53.7899 16.9631 52.4106 17.5371 50.9725 17.5371C49.5343 17.5371 48.1551 16.9631 47.1382 15.9414C46.1212 14.9197 45.5499 13.534 45.5499 12.0891V0.103516H41.2119V12.0891C41.2108 14.6049 42.1721 17.0248 43.8969 18.8485C45.6218 20.6722 47.9783 21.7602 50.4791 21.8873C52.9798 22.0145 55.4336 21.1712 57.333 19.5318C59.2323 17.8924 60.4318 15.5824 60.6836 13.0794L56.395 4.46192Z" fill="white"/>
<path d="M39.0427 0.103516H34.7047V21.8955H39.0427V0.103516Z" fill="white"/>
<path d="M71.578 0.103516L66.1555 10.9995L60.7329 0.103516H56.3949L63.9864 15.3579L66.1555 19.7163L68.3245 15.3579L71.578 8.82032V21.8955H75.916V0.103516H71.578Z" fill="white"/>
<path d="M62.9021 0.103516L66.1556 6.64112L69.4091 0.103516H62.9021Z" fill="url(#paint15_linear_5045_256280)"/>
</g>
<defs>
<linearGradient id="paint0_linear_5045_256280" x1="48.7102" y1="17.5378" x2="48.7102" y2="0.103952" gradientUnits="userSpaceOnUse">
<stop stop-color="#231F20"/>
<stop offset="1" stop-color="#231F20"/>
</linearGradient>
<linearGradient id="paint1_linear_5045_256280" x1="56.3894" y1="21.8947" x2="56.3894" y2="13.0786" gradientUnits="userSpaceOnUse">
<stop stop-color="#231F20"/>
<stop offset="1" stop-color="#231F20"/>
</linearGradient>
<linearGradient id="paint2_linear_5045_256280" x1="59.0988" y1="13.0784" x2="59.0988" y2="4.46094" gradientUnits="userSpaceOnUse">
<stop stop-color="#231F20"/>
<stop offset="1" stop-color="#231F20"/>
</linearGradient>
<linearGradient id="paint3_linear_5045_256280" x1="63.9853" y1="10.9995" x2="63.9853" y2="0.103516" gradientUnits="userSpaceOnUse">
<stop stop-color="#231F20"/>
<stop offset="1" stop-color="#231F20"/>
</linearGradient>
<linearGradient id="paint4_linear_5045_256280" x1="66.1539" y1="14.2664" x2="72.661" y2="14.2664" gradientUnits="userSpaceOnUse">
<stop stop-color="#231F20"/>
<stop offset="1" stop-color="#231F20"/>
</linearGradient>
<linearGradient id="paint5_linear_5045_256280" x1="76.457" y1="21.8953" x2="76.457" y2="0.103297" gradientUnits="userSpaceOnUse">
<stop stop-color="#231F20"/>
<stop offset="1" stop-color="#231F20"/>
</linearGradient>
<linearGradient id="paint6_linear_5045_256280" x1="39.5839" y1="21.8955" x2="39.5839" y2="0.103516" gradientUnits="userSpaceOnUse">
<stop stop-color="#231F20"/>
<stop offset="1" stop-color="#231F20"/>
</linearGradient>
<linearGradient id="paint7_linear_5045_256280" x1="29.1715" y1="15.3584" x2="29.1715" y2="0.103516" gradientUnits="userSpaceOnUse">
<stop stop-color="#231F20"/>
<stop offset="1" stop-color="#231F20"/>
</linearGradient>
<linearGradient id="paint8_linear_5045_256280" x1="27.1127" y1="15.3574" x2="27.1127" y2="21.895" gradientUnits="userSpaceOnUse">
<stop stop-color="#231F20"/>
<stop offset="1" stop-color="#231F20"/>
</linearGradient>
<linearGradient id="paint9_linear_5045_256280" x1="10.8457" y1="2.28272" x2="14.0992" y2="2.28272" gradientUnits="userSpaceOnUse">
<stop stop-color="#CD0000"/>
<stop offset="1" stop-color="#FF2A33"/>
</linearGradient>
<linearGradient id="paint10_linear_5045_256280" x1="4.33868" y1="13.1777" x2="14.0992" y2="13.1777" gradientUnits="userSpaceOnUse">
<stop stop-color="#FF2A33"/>
<stop offset="1" stop-color="#CD0000"/>
</linearGradient>
<linearGradient id="paint11_linear_5045_256280" x1="66.1556" y1="3.37232" x2="70.4937" y2="3.37232" gradientUnits="userSpaceOnUse">
<stop stop-color="#FF2A33"/>
<stop offset="1" stop-color="#CD0000"/>
</linearGradient>
<linearGradient id="paint12_linear_5045_256280" x1="17.3531" y1="17.5381" x2="22.7922" y2="17.5381" gradientUnits="userSpaceOnUse">
<stop stop-color="#CD0000"/>
<stop offset="1" stop-color="#FF2A33"/>
</linearGradient>
<linearGradient id="paint13_linear_5045_256280" x1="0" y1="10.9995" x2="13.0141" y2="10.9995" gradientUnits="userSpaceOnUse">
<stop stop-color="#FF2D55"/>
<stop offset="1" stop-color="#FF9500"/>
</linearGradient>
<linearGradient id="paint14_linear_5045_256280" x1="15.183" y1="17.5381" x2="21.69" y2="17.5381" gradientUnits="userSpaceOnUse">
<stop stop-color="#FF2D55"/>
<stop offset="1" stop-color="#FF9500"/>
</linearGradient>
<linearGradient id="paint15_linear_5045_256280" x1="62.9021" y1="3.37232" x2="69.4091" y2="3.37232" gradientUnits="userSpaceOnUse">
<stop stop-color="#FF2D55"/>
<stop offset="1" stop-color="#FF9500"/>
</linearGradient>
<clipPath id="clip0_5045_256280">
<rect width="77" height="21.7925" fill="white" transform="translate(0 0.103516)"/>
</clipPath>
</defs>
</svg>
