<svg width="32" height="32" viewBox="0 0 32 32" fill="none" xmlns="http://www.w3.org/2000/svg">
<g clip-path="url(#clip0_4885_264951)">
<rect width="32" height="32" fill="white" fill-opacity="0.01"/>
<path fill-rule="evenodd" clip-rule="evenodd" d="M2.83716 8.00195C2.83716 7.72581 3.06102 7.50195 3.33716 7.50195H28.6705C28.9466 7.50195 29.1705 7.72581 29.1705 8.00195C29.1705 8.2781 28.9466 8.50195 28.6705 8.50195H3.33716C3.06102 8.50195 2.83716 8.2781 2.83716 8.00195ZM2.83716 16.002C2.83716 15.7258 3.06102 15.502 3.33716 15.502H28.6705C28.9466 15.502 29.1705 15.7258 29.1705 16.002C29.1705 16.2781 28.9466 16.502 28.6705 16.502H3.33716C3.06102 16.502 2.83716 16.2781 2.83716 16.002ZM3.33716 23.502C3.06102 23.502 2.83716 23.7258 2.83716 24.002C2.83716 24.2781 3.06102 24.502 3.33716 24.502H28.6705C28.9466 24.502 29.1705 24.2781 29.1705 24.002C29.1705 23.7258 28.9466 23.502 28.6705 23.502H3.33716Z" fill="white"/>
</g>
<defs>
<clipPath id="clip0_4885_264951">
<rect width="32" height="32" fill="white"/>
</clipPath>
</defs>
</svg>
