<?xml version="1.0" encoding="utf-8"?>
<!-- Generator: Adobe Illustrator 27.5.0, SVG Export Plug-In . SVG Version: 6.00 Build 0)  -->
<svg version="1.1" id="Layer_1" xmlns="http://www.w3.org/2000/svg" xmlns:xlink="http://www.w3.org/1999/xlink" x="0px" y="0px"
	 viewBox="0 0 417 418" style="enable-background:new 0 0 417 418;" xml:space="preserve">
<style type="text/css">
	.st0{fill-rule:evenodd;clip-rule:evenodd;fill:#F8F9FA;}
</style>
<path class="st0" d="M275.4,235.6l-1.1,0.5c-13.8,5.5-29.2-0.2-35.7-13.2c0.1,0,0.3-0.1,0.5-0.1c0.2,0,0.3-0.1,0.5-0.1
	c5.4-1,10.7-2.5,15.7-4.4c8.8-3.3,16.8-8,24-13.7c5.3-4.2,10.1-8.9,14.2-14.1c2-2.4,3.8-5,5.5-7.6c2.2-0.2,4.3-0.5,6.5-0.9
	c0.5-0.1,1-0.2,1.5-0.3c1.6-0.3,3.1-0.6,4.6-1l0,0l0.4-0.1c0.1,0,0.2-0.1,0.4-0.1c1.2-2.5,2.6-4.8,4-7.1c2.9-4.8,6.4-9.1,10.2-13.2
	c0.6-0.7,1.3-1.4,1.9-2c0.3-0.3,0.7-0.7,1-1c0.1-0.1,0.3-0.3,0.4-0.4l0,0c0.3-0.3,0.7-0.6,0.9-0.9h0.1c2.4-2.2,4.9-4.4,7.6-6.3
	c4.6-3.5,9.6-6.6,14.9-9.1c0.9,2.2,1.7,4.4,2.4,6.7c0.6,1.9,1.2,3.9,1.6,6c1.5,6.2,2.3,12.5,2.3,19.1c-2.8-4.3-6-8.3-9.5-12
	c-1.3-1.4-2.6-2.7-3.9-4c-1.5,1.6-3,3.4-4.3,5.2l0,0c-0.7,0.9-1.4,1.9-2.1,2.9c-1.1,1.5-2.1,3-3,4.6c-0.2,0.3-0.3,0.5-0.5,0.8
	c-0.3,0.4-0.6,0.9-0.8,1.4c-0.3,0.6-0.6,1.1-0.9,1.7c-0.3,0.6-0.6,1.1-0.9,1.7c-6.5,12.3-10.2,26.3-10.2,41.2
	c0,5.3,0.5,10.6,1.4,15.7c0.7,3.6,1.5,7.2,2.6,10.6c1.4,4.5,3.2,8.9,5.2,13c2.9,5.9,6.4,11.4,10.6,16.5c1.2,1.5,2.4,2.9,3.7,4.3
	c1.4,1.6,2.9,3.1,4.5,4.6c2.1,1.9,4.2,3.8,6.5,5.6c0.7,0.6,1.5,1.2,2.3,1.7c-1-0.4-1.8-0.7-2.7-1.1c-2.8-1.2-5.5-2.5-8.1-3.9
	c-12.4-6.8-23.1-16.4-31.1-28c-0.4-0.6-0.8-1.2-1.2-1.8c-0.5-0.8-1-1.6-1.5-2.4c-2.7-4.4-5-9-7-13.9c-2.9-7.5-4.8-15.5-5.7-23.9
	c-0.2-2.8-0.4-5.5-0.4-8.3c0-0.7,0-1.3,0.1-2.1c-3.5,3-7.1,5.7-11,8.2c-2.3,1.4-6.1,3.8-11.2,6c-5.1,2.3-12.3,5-21.6,6.7l0,0v0
	c0.3,0.6,0.6,1.2,1,1.8C263.9,231.2,270.8,234.2,275.4,235.6z M194.5,167.5l-0.5,2.5h19.3c1.7,0,3.4-0.6,4.7-1.7
	c1.3-1.1,2.2-2.6,2.4-4.2l0.5-2.5h-19.3c-1.7,0-3.4,0.6-4.7,1.7C195.7,164.3,194.8,165.8,194.5,167.5z M100.7,224.5l-5.7,32h1.4
	c2.3-0.1,4.3,0.9,5.8,2.6c1.5,1.8,2.1,3.8,1.7,6.2l-0.1,0.2H93.5c-2.3,0.1-4.3-0.9-5.8-2.6c-1.5-1.8-2.1-3.8-1.7-6.3l4.6-25.9
	c0.3-1.8,1.2-3.3,2.6-4.5c1.3-1.2,3-1.8,4.8-1.8H100.7z M72.2,224.7l7.7,41H77c-1.7,0-3.5-0.6-4.8-1.7c-1.4-1.1-2.3-2.7-2.7-4.5
	l-0.7-3.9H58.5l4.9-9h3.8l-1.8-8.9l-12.7,24c-0.7,1.2-1.6,2.2-2.8,2.9c-1.2,0.7-2.5,1.1-3.9,1.1h-5.2l20.1-37.1
	c0.7-1.2,1.6-2.2,2.8-2.9c1.2-0.7,2.5-1.1,3.9-1.1H72.2z M159.3,224.7c-1.8-0.1-3.6,0.6-4.9,1.8c-1.4,1.2-2.3,2.8-2.6,4.5l-6.1,34.7
	h2.7c1.8,0,3.6-0.6,4.9-1.8c1.4-1.2,2.3-2.8,2.6-4.5l6.1-34.7H159.3z M182,224.7c-1.8-0.1-3.5,0.6-4.8,1.7c-1.4,1.2-2.3,2.8-2.6,4.5
	l-2.7,15.6H161l-1.6,9.1h10.9l-1.8,10.1h2.7c1.8,0,3.5-0.6,4.8-1.8c1.4-1.2,2.3-2.8,2.6-4.5l6.1-34.7H182z M213.1,224.7l7.7,41H218
	c-1.7,0-3.5-0.6-4.8-1.7c-1.4-1.1-2.3-2.7-2.7-4.5l-0.7-3.9h-10.4l4.9-9h3.8l-1.8-8.9l-12.7,24c-0.7,1.2-1.6,2.2-2.8,2.9
	c-1.2,0.7-2.5,1.1-3.9,1.1h-5.2l20.1-37c0.7-1.2,1.6-2.2,2.8-2.9c1.2-0.7,2.5-1.1,3.9-1.1L213.1,224.7z M139.6,226.8
	c2,1.3,3.5,3.3,4.3,5.5c0.8,2.2,1.1,4.7,0.6,7.5c-0.6,2.9-3,11-5.2,12.8c-2.1,1.8-4.9,2.8-7.7,2.8h-11.1l-0.7,4
	c-0.3,1.8-1.2,3.3-2.6,4.5c-1.4,1.2-3.1,1.8-4.9,1.8h-2.7l5.8-32.9c0.4-2.3,1.6-4.3,3.4-5.9c1.7-1.5,4-2.3,6.3-2.3h6.7
	C135,224.7,137.6,225.4,139.6,226.8z M133.2,245.9c0.7-0.3,1.1-0.9,1.3-1.8c0-0.1,0-0.3,0.1-0.5l0,0c0.3-1.7,1-6.9,0.9-7.5
	c-0.1-0.7-0.6-1.3-1.2-1.8c-0.7-0.4-1.5-0.6-2.8-0.6h-7.3l-2.2,12.5h8.7C131.6,246.3,132.5,246.2,133.2,245.9z M207.3,172.4
	c-1.7,0-3.3,0.6-4.6,1.6c-1.3,1.1-2.2,2.6-2.5,4.3l-4.4,24.7h2.6c1.7,0.1,3.3-0.5,4.6-1.6c1.3-1.1,2.2-2.6,2.5-4.3l4.4-24.7H207.3z
	 M184.8,161.9c-1.7,0-3.3,0.6-4.6,1.6c-1.3,1.1-2.1,2.6-2.4,4.2l-4.3,26.5h-17.1l1.2-6.9c0.8-3.8-1.2-7.9-4.7-9.6
	c-1.2-0.6-2.6-0.9-3.9-0.9h-12.8c-1.7,0-3.3,0.6-4.5,1.6c-1.3,1.1-2.2,2.6-2.5,4.2l-2.1,11.5H92.3l5.6-32.4h-2.6
	c-1.7,0-3.3,0.6-4.5,1.6c-1.3,1.1-2.2,2.6-2.5,4.2l-4.6,26.7c-0.3,2.2,0.2,4.2,1.6,5.9c1.3,1.6,3.3,2.5,5.4,2.5h83.8
	c1.7,0,3.3-0.6,4.6-1.6c1.3-1.1,2.2-2.6,2.5-4.2l5.8-35.1h-1.7H184.8z M148.7,188l-1.2,6.4h-11.6l1.4-7.7c0.1-0.8,0.4-1.5,0.7-2.2
	c0.4-0.6,1-0.9,1.9-0.9h6C148.2,183.6,149.1,185.7,148.7,188z M141.4,169l1-4.2c0.1-0.3,0.1-0.6,0.1-0.8c0.1-1.2-0.8-2.3-2.4-2.3
	h-4.8c-0.8,0-1.2,0.2-1.5,0.6c-0.3,0.5-0.5,0.9-0.6,1.5l-1.1,5.1h0.1l-0.1,0.2H141.4z M372.3,201.6c1.8-2.8,3.8-5.5,5.9-8
	c-2.3-1.9-4.8-3.7-7.3-5.3c-1.2-0.8-2.4-1.5-3.6-2.2c-0.4-0.2-0.7-0.5-1.1-0.7c-2.2-1.2-4.4-2.4-6.7-3.5c-1.1-0.5-2.3-1.1-3.5-1.5
	c1.1,1.4,2.1,2.9,3.2,4.3c1.2,1.9,2.5,3.9,3.6,5.9c-3.8,6.6-6.8,13.6-8.9,21.1c-2.1,7.5-3.2,15.4-3.2,23.6c0,5.6,0.5,11.1,1.5,16.4
	c1.3,6.9,3.4,13.5,6.2,19.7c1.2,2.6,2.4,5.2,3.9,7.6c0.8,1.3,1.5,2.6,2.4,3.9c-0.1-0.2-0.2-0.4-0.2-0.6c-0.6-1.4-1.1-2.8-1.6-4.3
	c-1.1-3-1.9-6.2-2.6-9.3c-1.4-6-2.1-12.4-2.1-18.8v-0.2c0-15.9,4.2-30.8,11.6-43.8C370.6,204.4,371.5,203,372.3,201.6z"/>
</svg>
