<svg width="417" height="418" viewBox="0 0 417 418" fill="none" xmlns="http://www.w3.org/2000/svg">
<rect x="3.5" y="3.8252" width="410.353" height="410.631" rx="18" stroke="#ADB5BD" stroke-width="6"/>
<path fill-rule="evenodd" clip-rule="evenodd" d="M275.382 235.563L274.311 236.09C260.561 241.543 245.085 235.856 238.597 222.897C238.745 222.868 238.909 222.839 239.073 222.809C239.237 222.78 239.4 222.751 239.549 222.722C244.966 221.725 250.263 220.2 255.263 218.324C264.013 214.982 272.049 210.349 279.251 204.662C284.549 200.499 289.311 195.749 293.478 190.531C295.442 188.127 297.287 185.547 299.013 182.967C301.216 182.732 303.358 182.439 305.501 182.029C305.978 181.97 306.513 181.853 306.989 181.735C308.581 181.432 310.083 181.085 311.612 180.732L311.612 180.732L311.987 180.645C312.107 180.618 312.226 180.59 312.347 180.563C313.597 178.1 314.966 175.755 316.394 173.468C319.311 168.718 322.763 164.321 326.573 160.275C327.203 159.576 327.86 158.903 328.509 158.238C328.839 157.899 329.168 157.562 329.489 157.226C329.624 157.093 329.771 156.954 329.923 156.811L329.923 156.811C330.24 156.512 330.577 156.194 330.858 155.877H330.918C333.358 153.649 335.858 151.48 338.478 149.545C343.12 146.026 348.12 142.977 353.418 140.456C354.311 142.626 355.085 144.854 355.799 147.14C356.394 149.075 356.989 151.069 357.406 153.121C358.894 159.278 359.728 165.669 359.728 172.236C356.93 167.956 353.775 163.969 350.263 160.216C348.954 158.809 347.644 157.519 346.335 156.229C344.787 157.871 343.358 159.63 341.989 161.448L341.987 161.45C341.274 162.387 340.56 163.325 339.847 164.321C338.775 165.845 337.763 167.37 336.811 168.894C336.652 169.163 336.484 169.432 336.314 169.704C336.039 170.144 335.759 170.593 335.501 171.064C335.204 171.621 334.891 172.178 334.579 172.734C334.266 173.292 333.954 173.849 333.656 174.406C327.108 186.719 323.478 200.733 323.478 215.568C323.478 220.904 323.954 226.122 324.847 231.224C325.561 234.859 326.394 238.377 327.466 241.837C328.894 246.352 330.62 250.691 332.644 254.795C335.561 260.659 339.073 266.229 343.239 271.272C344.43 272.737 345.62 274.145 346.93 275.552C348.299 277.135 349.847 278.66 351.394 280.126C353.478 282.061 355.62 283.937 357.882 285.696C358.597 286.282 359.37 286.869 360.144 287.396C359.192 287.045 358.358 286.693 357.466 286.282C354.668 285.11 351.989 283.82 349.37 282.354C336.93 275.552 326.275 265.936 318.239 254.385C317.823 253.798 317.406 253.212 317.049 252.567C316.513 251.746 316.037 250.984 315.561 250.163C312.882 245.765 310.561 241.133 308.597 236.266C305.68 228.761 303.775 220.787 302.942 212.402C302.704 209.646 302.525 206.89 302.525 204.075C302.525 203.372 302.525 202.727 302.585 202.023C299.132 205.014 295.501 207.77 291.632 210.232C289.37 211.639 285.501 213.985 280.442 216.272C275.382 218.558 268.12 221.256 258.835 222.956L258.835 222.956L258.835 222.957C259.132 223.543 259.43 224.129 259.787 224.715C263.894 231.224 270.799 234.214 275.382 235.563ZM194.549 167.487L194.073 170.009H213.358C215.085 170.009 216.751 169.422 218.061 168.308C219.37 167.253 220.263 165.728 220.501 164.087L220.978 161.565H201.692C199.966 161.565 198.299 162.152 196.989 163.266C195.68 164.321 194.847 165.846 194.549 167.487ZM100.739 224.539L95.0843 256.554H96.4534C98.7153 256.496 100.799 257.492 102.227 259.193C103.715 260.952 104.311 263.004 103.953 265.408L103.894 265.584H93.4772C91.2153 265.643 89.1319 264.646 87.7034 262.945C86.2153 261.186 85.62 259.134 85.9772 256.671L90.5605 230.813C90.8581 229.054 91.8105 227.471 93.1796 226.298C94.4891 225.126 96.2153 224.539 98.001 224.539H100.739ZM72.1678 224.656L79.9059 265.642H77.0488C75.3226 265.642 73.5964 265.056 72.2273 263.942C70.8583 262.828 69.9059 261.244 69.5488 259.485L68.8345 255.615H58.4774L63.4178 246.586H67.1678L65.3821 237.732L52.644 261.714C51.9893 262.886 51.0369 263.942 49.8464 264.645C48.6559 265.349 47.3464 265.701 45.9774 265.701H40.7393L60.7988 228.643C61.4535 227.47 62.4059 226.415 63.5964 225.711C64.7869 225.008 66.0964 224.656 67.4654 224.656H72.1678ZM159.311 224.656C157.465 224.598 155.739 225.243 154.43 226.415C153.061 227.588 152.108 229.171 151.811 230.93L145.68 265.642H148.418C150.263 265.642 151.989 265.056 153.299 263.883C154.668 262.711 155.62 261.127 155.918 259.368L162.049 224.656H159.311ZM182.049 224.656C180.263 224.598 178.537 225.243 177.227 226.357C175.858 227.529 174.906 229.113 174.608 230.872L171.87 246.469H160.977L159.37 255.557H170.263L168.477 265.642H171.215C173.001 265.642 174.727 265.056 176.037 263.883C177.406 262.711 178.358 261.127 178.656 259.368L184.787 224.656H182.049ZM213.061 224.656L220.799 265.642H218.001C216.275 265.642 214.549 265.056 213.18 263.942C211.811 262.828 210.859 261.244 210.501 259.485L209.787 255.615H199.43L204.37 246.586H208.12L206.335 237.732L193.597 261.714C192.942 262.886 191.989 263.942 190.799 264.645C189.609 265.349 188.299 265.701 186.93 265.701H181.751L201.811 228.702C202.466 227.529 203.418 226.474 204.608 225.77C205.799 225.066 207.108 224.715 208.478 224.715L213.061 224.656ZM139.608 226.767C141.573 228.115 143.12 230.05 143.894 232.279C144.727 234.507 144.965 237.028 144.489 239.784C143.894 242.716 141.513 250.807 139.251 252.625C137.108 254.443 134.37 255.44 131.513 255.381H120.442L119.727 259.427C119.43 261.186 118.477 262.769 117.108 263.942C115.739 265.114 114.013 265.701 112.227 265.701H109.489L115.323 232.806C115.68 230.52 116.93 228.467 118.715 226.943C120.442 225.418 122.704 224.656 125.025 224.656H131.751C134.965 224.656 137.584 225.36 139.608 226.767ZM133.239 245.941C133.894 245.647 134.37 245.061 134.549 244.123C134.562 244.029 134.588 243.861 134.622 243.637L134.622 243.637C134.884 241.9 135.659 236.765 135.501 236.09C135.382 235.386 134.906 234.741 134.311 234.331C133.656 233.92 132.763 233.686 131.513 233.686H124.251L122.049 246.234H130.739C131.573 246.292 132.465 246.175 133.239 245.941ZM207.287 172.354C205.62 172.354 203.953 172.941 202.644 173.996C201.334 175.11 200.442 176.576 200.144 178.276L195.739 203.02H198.358C200.084 203.079 201.692 202.493 203.001 201.379C204.311 200.265 205.203 198.799 205.501 197.098L209.906 172.354H207.287ZM184.787 161.917C183.12 161.917 181.454 162.504 180.204 163.559C178.894 164.614 178.061 166.139 177.763 167.781L173.477 194.284H156.334L157.584 187.424C158.358 183.671 156.394 179.566 152.882 177.866C151.692 177.28 150.323 176.928 149.013 176.986H136.215C134.549 176.986 132.942 177.573 131.692 178.628C130.382 179.742 129.489 181.208 129.192 182.85L127.049 194.343L92.2869 194.343L97.8821 161.917H95.3226C93.6559 161.917 92.0488 162.504 90.7988 163.559C89.4893 164.614 88.5964 166.139 88.2988 167.781L83.7154 194.518C83.4178 196.747 83.9535 198.74 85.3226 200.382C86.6321 202.024 88.6559 202.903 90.7393 202.845L174.549 202.845C176.215 202.845 177.823 202.258 179.132 201.203C180.442 200.147 181.334 198.623 181.632 196.981L187.406 161.917H185.68H184.787ZM148.656 187.951L147.465 194.343H135.858L137.287 186.661C137.406 185.899 137.644 185.137 138.001 184.433C138.358 183.847 138.954 183.554 139.906 183.554H145.858C148.18 183.612 149.132 185.723 148.656 187.951ZM141.394 169.012L142.346 164.791C142.428 164.502 142.462 164.217 142.448 163.943C142.507 162.72 141.661 161.674 140.025 161.624H135.203C134.43 161.624 133.953 161.858 133.656 162.21C133.358 162.679 133.12 163.148 133.061 163.676L131.93 168.777H131.982L131.93 169.012H141.394ZM372.346 201.612C374.132 198.856 376.096 196.159 378.239 193.579C375.918 191.644 373.477 189.885 370.918 188.302C369.727 187.539 368.537 186.836 367.346 186.132C366.989 185.898 366.632 185.663 366.216 185.429C364.013 184.197 361.811 183.025 359.489 181.969C358.358 181.441 357.227 180.914 356.037 180.445C357.168 181.852 358.18 183.318 359.192 184.784C360.442 186.66 361.692 188.654 362.823 190.647C359.013 197.214 355.977 204.251 353.894 211.756C351.811 219.261 350.68 227.177 350.68 235.386C350.68 241.015 351.216 246.468 352.227 251.745C353.537 258.606 355.62 265.231 358.418 271.447C359.608 274.085 360.858 276.607 362.287 279.069C363.061 280.418 363.835 281.708 364.668 282.998C364.587 282.794 364.505 282.591 364.424 282.389C363.853 280.961 363.292 279.562 362.823 278.073C361.751 275.023 360.918 271.916 360.204 268.749C358.835 262.71 358.12 256.377 358.12 249.928V249.693C358.12 233.744 362.346 218.851 369.727 205.892C370.561 204.426 371.454 203.019 372.346 201.612Z" fill="#F8F9FA"/>
</svg>
