<svg width="50" height="15" viewBox="0 0 50 15" fill="none" xmlns="http://www.w3.org/2000/svg">
<path d="M9.35156 12.5566V14.5H2.21289V12.5566H9.35156ZM2.89648 0.28125V14.5H0.445312V0.28125H2.89648ZM21.9395 7V7.78125C21.9395 8.85547 21.7995 9.81901 21.5195 10.6719C21.2396 11.5247 20.8392 12.2507 20.3184 12.8496C19.804 13.4486 19.1855 13.9076 18.4629 14.2266C17.7402 14.5391 16.9395 14.6953 16.0605 14.6953C15.1882 14.6953 14.3906 14.5391 13.668 14.2266C12.9518 13.9076 12.3301 13.4486 11.8027 12.8496C11.2754 12.2507 10.8652 11.5247 10.5723 10.6719C10.2858 9.81901 10.1426 8.85547 10.1426 7.78125V7C10.1426 5.92578 10.2858 4.96549 10.5723 4.11914C10.8587 3.26628 11.2624 2.54036 11.7832 1.94141C12.3105 1.33594 12.9323 0.876953 13.6484 0.564453C14.3711 0.245443 15.1686 0.0859375 16.041 0.0859375C16.9199 0.0859375 17.7207 0.245443 18.4434 0.564453C19.166 0.876953 19.7878 1.33594 20.3086 1.94141C20.8294 2.54036 21.2298 3.26628 21.5098 4.11914C21.7962 4.96549 21.9395 5.92578 21.9395 7ZM19.4883 7.78125V6.98047C19.4883 6.1862 19.4102 5.48633 19.2539 4.88086C19.1042 4.26888 18.8796 3.75781 18.5801 3.34766C18.2871 2.93099 17.9258 2.61849 17.4961 2.41016C17.0664 2.19531 16.5814 2.08789 16.041 2.08789C15.5007 2.08789 15.0189 2.19531 14.5957 2.41016C14.1725 2.61849 13.8112 2.93099 13.5117 3.34766C13.2188 3.75781 12.9941 4.26888 12.8379 4.88086C12.6816 5.48633 12.6035 6.1862 12.6035 6.98047V7.78125C12.6035 8.57552 12.6816 9.27865 12.8379 9.89062C12.9941 10.5026 13.222 11.0202 13.5215 11.4434C13.8275 11.86 14.1921 12.1758 14.6152 12.3906C15.0384 12.599 15.5202 12.7031 16.0605 12.7031C16.6074 12.7031 17.0924 12.599 17.5156 12.3906C17.9388 12.1758 18.2969 11.86 18.5898 11.4434C18.8828 11.0202 19.1042 10.5026 19.2539 9.89062C19.4102 9.27865 19.4883 8.57552 19.4883 7.78125ZM35.3086 7.23438V12.6641C35.1068 12.931 34.791 13.224 34.3613 13.543C33.9382 13.8555 33.375 14.1257 32.6719 14.3535C31.9688 14.5814 31.0931 14.6953 30.0449 14.6953C29.153 14.6953 28.3359 14.5456 27.5938 14.2461C26.8516 13.9401 26.2103 13.4941 25.6699 12.9082C25.1361 12.3223 24.7227 11.6094 24.4297 10.7695C24.1367 9.92318 23.9902 8.95964 23.9902 7.87891V6.89258C23.9902 5.81836 24.1237 4.86133 24.3906 4.02148C24.6641 3.17513 25.0547 2.45898 25.5625 1.87305C26.0703 1.28711 26.6823 0.844401 27.3984 0.544922C28.1211 0.238932 28.9382 0.0859375 29.8496 0.0859375C31.015 0.0859375 31.9785 0.28125 32.7402 0.671875C33.5085 1.05599 34.1009 1.58984 34.5176 2.27344C34.9342 2.95703 35.1979 3.73828 35.3086 4.61719H32.9062C32.8281 4.1224 32.6751 3.67969 32.4473 3.28906C32.2259 2.89844 31.9069 2.59245 31.4902 2.37109C31.0801 2.14323 30.5462 2.0293 29.8887 2.0293C29.3223 2.0293 28.8242 2.13672 28.3945 2.35156C27.9648 2.56641 27.6068 2.88216 27.3203 3.29883C27.0404 3.71549 26.8288 4.22331 26.6855 4.82227C26.5423 5.42122 26.4707 6.10482 26.4707 6.87305V7.87891C26.4707 8.66016 26.5521 9.35352 26.7148 9.95898C26.8841 10.5645 27.125 11.0755 27.4375 11.4922C27.7565 11.9089 28.1439 12.2246 28.5996 12.4395C29.0553 12.6478 29.5697 12.752 30.1426 12.752C30.7025 12.752 31.1615 12.7064 31.5195 12.6152C31.8776 12.5176 32.1608 12.4036 32.3691 12.2734C32.584 12.1367 32.75 12.0065 32.8672 11.8828V9.06055H29.9082V7.23438H35.3086ZM49.3613 7V7.78125C49.3613 8.85547 49.2214 9.81901 48.9414 10.6719C48.6615 11.5247 48.2611 12.2507 47.7402 12.8496C47.2259 13.4486 46.6074 13.9076 45.8848 14.2266C45.1621 14.5391 44.3613 14.6953 43.4824 14.6953C42.61 14.6953 41.8125 14.5391 41.0898 14.2266C40.3737 13.9076 39.752 13.4486 39.2246 12.8496C38.6973 12.2507 38.2871 11.5247 37.9941 10.6719C37.7077 9.81901 37.5645 8.85547 37.5645 7.78125V7C37.5645 5.92578 37.7077 4.96549 37.9941 4.11914C38.2806 3.26628 38.6842 2.54036 39.2051 1.94141C39.7324 1.33594 40.3542 0.876953 41.0703 0.564453C41.793 0.245443 42.5905 0.0859375 43.4629 0.0859375C44.3418 0.0859375 45.1426 0.245443 45.8652 0.564453C46.5879 0.876953 47.2096 1.33594 47.7305 1.94141C48.2513 2.54036 48.6517 3.26628 48.9316 4.11914C49.2181 4.96549 49.3613 5.92578 49.3613 7ZM46.9102 7.78125V6.98047C46.9102 6.1862 46.832 5.48633 46.6758 4.88086C46.526 4.26888 46.3014 3.75781 46.002 3.34766C45.709 2.93099 45.3477 2.61849 44.918 2.41016C44.4883 2.19531 44.0033 2.08789 43.4629 2.08789C42.9225 2.08789 42.4408 2.19531 42.0176 2.41016C41.5944 2.61849 41.2331 2.93099 40.9336 3.34766C40.6406 3.75781 40.416 4.26888 40.2598 4.88086C40.1035 5.48633 40.0254 6.1862 40.0254 6.98047V7.78125C40.0254 8.57552 40.1035 9.27865 40.2598 9.89062C40.416 10.5026 40.6439 11.0202 40.9434 11.4434C41.2493 11.86 41.6139 12.1758 42.0371 12.3906C42.4603 12.599 42.9421 12.7031 43.4824 12.7031C44.0293 12.7031 44.5143 12.599 44.9375 12.3906C45.3607 12.1758 45.7188 11.86 46.0117 11.4434C46.3047 11.0202 46.526 10.5026 46.6758 9.89062C46.832 9.27865 46.9102 8.57552 46.9102 7.78125Z" fill="white"/>
</svg>
