<svg width="48" height="48" viewBox="0 0 48 48" fill="none" xmlns="http://www.w3.org/2000/svg">
<g id="wrapper">
<path id="Union" fill-rule="evenodd" clip-rule="evenodd" d="M13.7221 30.0355L14.0138 29.8918C12.7661 29.5247 10.8865 28.7107 9.76846 26.9389C9.67124 26.7793 9.59022 26.6197 9.50921 26.4601L9.5092 26.4601C12.037 25.9972 14.0138 25.2629 15.3911 24.6404C16.7684 24.0179 17.8216 23.3794 18.4373 22.9964C19.4906 22.326 20.479 21.5758 21.4188 20.7617C21.4026 20.9533 21.4026 21.1288 21.4026 21.3204C21.4026 22.0865 21.4512 22.8368 21.516 23.587C21.7429 25.8695 22.2614 28.0403 23.0554 30.0834C23.5901 31.4082 24.222 32.6691 24.9512 33.8663C25.0808 34.0897 25.2104 34.2972 25.3563 34.5207C25.4535 34.6963 25.5669 34.8559 25.6803 35.0155C27.8678 38.16 30.7682 40.7777 34.1548 42.6292C34.8677 43.0283 35.5969 43.3794 36.3584 43.6987C36.6015 43.8104 36.8284 43.9062 37.0876 44.002C36.877 43.8583 36.6663 43.6987 36.4719 43.5391C35.8561 43.0602 35.2728 42.5494 34.7057 42.0227C34.2844 41.6237 33.8631 41.2087 33.4904 40.7777C33.134 40.3946 32.8099 40.0115 32.4858 39.6125C31.3516 38.2398 30.3956 36.7234 29.6016 35.1273C29.0507 34.0099 28.5808 32.8288 28.1919 31.5997C27.9002 30.658 27.6734 29.7003 27.4789 28.7106C27.2359 27.322 27.1062 25.9014 27.1062 24.4489C27.1062 20.4106 28.0947 16.5957 29.877 13.2438C29.9581 13.0921 30.0431 12.9405 30.1282 12.7889C30.2133 12.6372 30.2983 12.4856 30.3794 12.334C30.4494 12.2058 30.5256 12.0837 30.6004 11.964C30.6467 11.8899 30.6925 11.8166 30.7358 11.7434C30.9951 11.3284 31.2705 10.9134 31.5622 10.4984C31.7566 10.227 31.9511 9.97164 32.1455 9.71626L32.1455 9.71624C32.5182 9.22143 32.9071 8.74258 33.3284 8.29565C33.6849 8.64681 34.0413 8.99796 34.3978 9.38104C35.3538 10.4026 36.2126 11.488 36.9742 12.6532C36.9742 10.8655 36.7473 9.12566 36.3423 7.44968C36.2288 6.89102 36.0668 6.34832 35.9048 5.82159C35.7103 5.19908 35.4997 4.59254 35.2566 4.00195C33.8145 4.68831 32.4534 5.51831 31.1895 6.47602C30.4766 7.00275 29.796 7.59333 29.1317 8.19988H29.1155C29.0387 8.28628 28.9471 8.37269 28.8608 8.45415C28.8195 8.49307 28.7795 8.53087 28.7428 8.567C28.6552 8.65864 28.5658 8.75027 28.4758 8.84253C28.2993 9.02344 28.1205 9.20672 27.9488 9.39701C26.9118 10.4984 25.972 11.6955 25.178 12.9884C24.7891 13.6109 24.4164 14.2494 24.0762 14.9198C24.0093 14.9351 23.9427 14.9505 23.8763 14.9658C23.4601 15.0619 23.0511 15.1564 22.6179 15.239C22.4882 15.2709 22.3424 15.3028 22.2128 15.3188C21.6294 15.4305 21.0461 15.5103 20.4466 15.5742C19.9767 16.2765 19.4744 16.9788 18.9397 17.6332C17.8054 19.0538 16.5091 20.3467 15.067 21.48C13.1064 23.0283 10.9189 24.2893 8.53699 25.1991C7.17589 25.7099 5.73378 26.1249 4.25926 26.3962C4.21874 26.4042 4.17416 26.4122 4.12958 26.4202C4.08504 26.4281 4.0405 26.4361 4 26.4441C5.76618 29.9716 9.9791 31.5199 13.7221 30.0355ZM40.4093 20.6497C40.8954 19.8995 41.4302 19.1653 42.0135 18.463C41.3815 17.9362 40.7172 17.4574 40.0205 17.0264C39.6964 16.8189 39.3724 16.6274 39.0483 16.4359L39.0482 16.4358C38.951 16.372 38.8538 16.3082 38.7404 16.2443C38.1408 15.9091 37.5413 15.5899 36.9094 15.3026L36.9093 15.3025C36.6015 15.1589 36.2936 15.0152 35.9696 14.8876C36.2774 15.2706 36.5529 15.6697 36.8284 16.0687C37.1686 16.5795 37.5089 17.1222 37.8168 17.6649C36.7797 19.4526 35.9534 21.368 35.3862 23.4111C34.8191 25.4542 34.5113 27.609 34.5113 29.8437C34.5113 31.376 34.6571 32.8604 34.9325 34.297C35.289 36.1645 35.8561 37.9682 36.6177 39.6601C36.9418 40.3784 37.2821 41.0647 37.6709 41.7351C37.8816 42.1022 38.0922 42.4534 38.3191 42.8046C38.297 42.7491 38.2749 42.6939 38.2528 42.6389C38.0971 42.2502 37.9445 41.8693 37.8168 41.4638C37.5251 40.6338 37.2983 39.7878 37.1038 38.9259C36.7311 37.2818 36.5367 35.558 36.5367 33.8022V33.7383C36.5367 29.3967 37.6871 25.3425 39.6964 21.8149C39.9232 21.4159 40.1663 21.0328 40.4093 20.6497Z" fill="white"/>
</g>
</svg>
